<svg xmlns="http://www.w3.org/2000/svg" xmlns:xlink="http://www.w3.org/1999/xlink" width="1920" height="3009" viewBox="0 0 1920 3009"><defs><filter id="a" x="1124.595" y="403.154" width="579.047" height="445.511" filterUnits="userSpaceOnUse"><feOffset dx="-40" dy="16" input="SourceAlpha"/><feGaussianBlur stdDeviation="16" result="b"/><feFlood flood-opacity="0.161"/><feComposite operator="in" in2="b"/><feComposite in="SourceGraphic"/></filter><clipPath id="d"><rect width="1920" height="3009"/></clipPath></defs><g id="c" clip-path="url(#d)"><rect width="1920" height="3009" fill="#fff"/><path d="M0,972.718C169.831,822.469,406.382,730.275,503.429,773.946s365.138,491.3,434.283,493.724,90.981-69.146,277.8-184.388S1504.221,1076,1504.221,1076s152.848,337.237,270.517,224.42S1920.308,1076,1920.308,1076v1455.88H0Z" fill="#eefdff"/><g transform="matrix(1, 0, 0, 1, 0, 0)" filter="url(#a)"><path d="M261.344,665.183c89.458-40.805,270.989,2.149,289.823,42.955s-56.5,26.157-49.176,81.611,155.636,119.8,78.472,140.2-307.348,7.6-387.128-58.592S171.886,705.989,261.344,665.183Z" transform="translate(968.2 -123.38) rotate(-8)" fill="#bef7ff"/></g><path d="M611.464,241.062H476.238a2.507,2.507,0,0,1-2.5-2.5V176.467a2.507,2.507,0,0,1,2.5-2.5H611.464a2.507,2.507,0,0,1,2.5,2.5v62.091A2.507,2.507,0,0,1,611.464,241.062Zm-135.226-66.1a1.5,1.5,0,0,0-1.5,1.5v62.092a1.5,1.5,0,0,0,1.5,1.5H611.464a1.5,1.5,0,0,0,1.5-1.5V176.467a1.5,1.5,0,0,0-1.5-1.5Z" transform="translate(1006.638 246.121)" fill="#e6e6e6"/><ellipse cx="10.201" cy="10.201" rx="10.201" ry="10.201" transform="translate(1492.685 431.878)" fill="#29e2ff"/><path d="M591.327,213.649a1.7,1.7,0,1,0,0,3.4h80.148a1.7,1.7,0,1,0,0-3.4Z" transform="translate(935.118 221.629)" fill="#e6e6e6"/><path d="M591.327,240.292a1.7,1.7,0,1,0,0,3.4h34.488a1.7,1.7,0,1,0,0-3.4Z" transform="translate(935.118 205.187)" fill="#e6e6e6"/><path d="M508.319,282.885c-1.293,0-2.346.763-2.346,1.7s1.052,1.7,2.346,1.7H618.9c1.293,0,2.346-.763,2.346-1.7s-1.052-1.7-2.346-1.7Z" transform="translate(986.742 178.902)" fill="#e6e6e6"/><path d="M508.319,309.527c-1.293,0-2.346.763-2.346,1.7s1.052,1.7,2.346,1.7H618.9c1.293,0,2.346-.763,2.346-1.7s-1.052-1.7-2.346-1.7Z" transform="translate(986.742 162.461)" fill="#e6e6e6"/><ellipse cx="18.141" cy="18.141" rx="18.141" ry="18.141" transform="translate(1575.606 380.694)" fill="#29e2ff"/><path d="M571.814,92.736l-5.673-9.825-5.672-9.825h22.69l-5.672,9.825Z" transform="translate(1021.934 335.591)" fill="#29e2ff"/><ellipse cx="6.509" cy="6.509" rx="6.509" ry="6.509" transform="translate(1587.385 392.213)" fill="#fff"/><rect width="170" height="26" rx="13" transform="translate(802 288)" fill="#bef7ff"/><rect width="101" height="29" rx="14.5" transform="translate(164 372)" fill="#bef7ff"/><rect width="180" height="55" rx="27.5" transform="translate(164 756)" fill="#bef7ff"/><rect width="360" height="71" rx="35.5" transform="translate(317 876)" fill="#bef7ff"/><rect width="156" height="71" rx="35.5" transform="translate(724 797)" fill="#bef7ff"/><g transform="translate(1213.752 374.818)"><path d="M340.652,325.123a79.391,79.391,0,0,1,6.571-25.056q1.483-3.313,3.264-6.48a.484.484,0,0,0-.835-.488,80.487,80.487,0,0,0-8.956,24.708q-.672,3.632-1.011,7.316C339.628,325.743,340.6,325.739,340.652,325.123Z" transform="translate(-268.113 -240.931)" fill="#e6e6e6"/><circle cx="6.124" cy="6.124" r="6.124" transform="translate(78.593 41.958)" fill="#e6e6e6"/><path d="M341.8,331.459a51.505,51.505,0,0,1,4.263-16.255q.962-2.149,2.118-4.2a.314.314,0,0,0-.542-.317,52.217,52.217,0,0,0-5.81,16.029q-.436,2.356-.656,4.746C341.134,331.861,341.761,331.858,341.8,331.459Z" transform="translate(-268.632 -247.104)" fill="#e6e6e6"/><circle cx="3.973" cy="3.973" r="3.973" transform="translate(77.093 56.956)" fill="#e6e6e6"/><path d="M336.527,331.207a51.5,51.5,0,0,1-6.637-15.439q-.563-2.286-.916-4.617a.314.314,0,0,0-.622.083,52.217,52.217,0,0,0,5.278,16.213q1.105,2.126,2.4,4.145c.218.34.711-.048.495-.386Z" transform="translate(-264.152 -247.227)" fill="#e6e6e6"/><circle cx="3.973" cy="3.973" r="3.973" transform="translate(60.222 56.677)" fill="#e6e6e6"/><path d="M322.169,341.76v-7.806a2.931,2.931,0,0,1,2.927-2.927h18.214a2.931,2.931,0,0,1,2.927,2.927v7.806a2.931,2.931,0,0,1-2.927,2.927H325.1a2.931,2.931,0,0,1-2.927-2.927Z" transform="translate(-261.992 -254.265)" fill="#f2f2f2"/><path d="M347.9,250.756H340.1a2.931,2.931,0,0,1-2.927-2.927V215.953a2.931,2.931,0,0,1,2.927-2.927H347.9a2.931,2.931,0,0,1,2.927,2.927v31.875A2.931,2.931,0,0,1,347.9,250.756Z" transform="translate(-267.234 -213.026)" fill="#f2f2f2"/><rect width="13.01" height="2.602" transform="translate(70.26 6.18)" fill="#ccc"/><rect width="13.01" height="2.602" transform="translate(70.26 26.346)" fill="#ccc"/><path d="M377.9,250.756H370.1a2.931,2.931,0,0,1-2.927-2.927V215.953a2.931,2.931,0,0,1,2.927-2.927H377.9a2.931,2.931,0,0,1,2.927,2.927v31.875A2.931,2.931,0,0,1,377.9,250.756Z" transform="translate(-277.719 -213.026)" fill="#f2f2f2"/><rect width="13.01" height="2.602" transform="translate(89.776 6.18)" fill="#ccc"/><rect width="13.01" height="2.602" transform="translate(89.776 26.346)" fill="#ccc"/><path d="M407.9,250.756H400.1a2.931,2.931,0,0,1-2.927-2.927V215.953a2.931,2.931,0,0,1,2.927-2.927H407.9a2.931,2.931,0,0,1,2.927,2.927v31.875A2.931,2.931,0,0,1,407.9,250.756Z" transform="translate(-288.203 -213.026)" fill="#f2f2f2"/><rect width="13.01" height="2.602" transform="translate(109.291 6.18)" fill="#ccc"/><rect width="13.01" height="2.602" transform="translate(109.291 26.346)" fill="#ccc"/><path d="M423.9,331.756H416.1a2.931,2.931,0,0,1-2.927-2.927V296.953a2.931,2.931,0,0,1,2.927-2.927H423.9a2.931,2.931,0,0,1,2.927,2.927v31.875A2.931,2.931,0,0,1,423.9,331.756Z" transform="translate(-293.795 -241.334)" fill="#f2f2f2"/><rect width="13.01" height="2.602" transform="translate(119.7 58.872)" fill="#ccc"/><rect width="13.01" height="2.602" transform="translate(119.7 79.038)" fill="#ccc"/><path d="M453.9,331.756H446.1a2.931,2.931,0,0,1-2.927-2.927V296.953a2.931,2.931,0,0,1,2.927-2.927H453.9a2.931,2.931,0,0,1,2.927,2.927v31.875A2.931,2.931,0,0,1,453.9,331.756Z" transform="translate(-304.279 -241.334)" fill="#f2f2f2"/><rect width="13.01" height="2.602" transform="translate(139.215 58.872)" fill="#ccc"/><rect width="13.01" height="2.602" transform="translate(139.215 79.038)" fill="#ccc"/><path d="M483.9,331.756H476.1a2.931,2.931,0,0,1-2.927-2.927V296.953a2.931,2.931,0,0,1,2.927-2.927H483.9a2.931,2.931,0,0,1,2.927,2.927v31.875A2.931,2.931,0,0,1,483.9,331.756Z" transform="translate(-314.764 -241.334)" fill="#f2f2f2"/><rect width="13.01" height="2.602" transform="translate(158.731 58.872)" fill="#ccc"/><rect width="13.01" height="2.602" transform="translate(158.731 79.038)" fill="#ccc"/><path d="M344.9,412.756H337.1a2.931,2.931,0,0,1-2.927-2.927V377.953a2.931,2.931,0,0,1,2.927-2.927H344.9a2.931,2.931,0,0,1,2.927,2.927v31.875a2.931,2.931,0,0,1-2.927,2.927Z" transform="translate(-266.186 -269.642)" fill="#f2f2f2"/><rect width="13.01" height="2.602" transform="translate(68.309 111.564)" fill="#ccc"/><rect width="13.01" height="2.602" transform="translate(68.309 131.73)" fill="#ccc"/><path d="M374.9,412.756H367.1a2.931,2.931,0,0,1-2.927-2.927V377.953a2.931,2.931,0,0,1,2.927-2.927H374.9a2.931,2.931,0,0,1,2.927,2.927v31.875a2.931,2.931,0,0,1-2.927,2.927Z" transform="translate(-276.67 -269.642)" fill="#f2f2f2"/><rect width="13.01" height="2.602" transform="translate(87.824 111.564)" fill="#ccc"/><rect width="13.01" height="2.602" transform="translate(87.824 131.73)" fill="#ccc"/><path d="M404.9,412.756H397.1a2.931,2.931,0,0,1-2.927-2.927V377.953a2.931,2.931,0,0,1,2.927-2.927H404.9a2.931,2.931,0,0,1,2.927,2.927v31.875a2.931,2.931,0,0,1-2.927,2.927Z" transform="translate(-287.155 -269.642)" fill="#f2f2f2"/><rect width="13.01" height="2.602" transform="translate(107.34 111.564)" fill="#ccc"/><rect width="13.01" height="2.602" transform="translate(107.34 131.73)" fill="#ccc"/><path d="M437.9,250.756H430.1a2.931,2.931,0,0,1-2.927-2.927V215.953a2.931,2.931,0,0,1,2.927-2.927H437.9a2.931,2.931,0,0,1,2.927,2.927v31.875A2.931,2.931,0,0,1,437.9,250.756Z" transform="translate(-298.688 -213.026)" fill="#f2f2f2"/><rect width="13.01" height="2.602" transform="translate(128.807 6.18)" fill="#ccc"/><rect width="13.01" height="2.602" transform="translate(128.807 26.346)" fill="#ccc"/><path d="M467.9,250.756H460.1a2.931,2.931,0,0,1-2.927-2.927V215.953a2.931,2.931,0,0,1,2.927-2.927H467.9a2.931,2.931,0,0,1,2.927,2.927v31.875a2.931,2.931,0,0,1-2.927,2.927Z" transform="translate(-309.172 -213.026)" fill="#f2f2f2"/><rect width="13.01" height="2.602" transform="translate(148.322 6.18)" fill="#ccc"/><rect width="13.01" height="2.602" transform="translate(148.322 26.346)" fill="#ccc"/><path d="M497.9,250.756H490.1a2.931,2.931,0,0,1-2.927-2.927V215.953a2.931,2.931,0,0,1,2.927-2.927H497.9a2.931,2.931,0,0,1,2.927,2.927v31.875A2.931,2.931,0,0,1,497.9,250.756Z" transform="translate(-319.657 -213.026)" fill="#f2f2f2"/><rect width="13.01" height="2.602" transform="translate(167.838 6.18)" fill="#ccc"/><rect width="13.01" height="2.602" transform="translate(167.838 26.346)" fill="#ccc"/><path d="M527.9,250.756H520.1a2.931,2.931,0,0,1-2.927-2.927V215.953a2.931,2.931,0,0,1,2.927-2.927H527.9a2.931,2.931,0,0,1,2.927,2.927v31.875A2.931,2.931,0,0,1,527.9,250.756Z" transform="translate(-330.141 -213.026)" fill="#f2f2f2"/><rect width="13.01" height="2.602" transform="translate(187.353 6.18)" fill="#ccc"/><rect width="13.01" height="2.602" transform="translate(187.353 26.346)" fill="#ccc"/><path d="M478.658,271.827H293.26a.651.651,0,0,1,0-1.3h185.4a.651.651,0,0,1,0,1.3Z" transform="translate(-251.661 -233.121)" fill="#ccc"/><path d="M478.658,352.827H293.26a.651.651,0,0,1,0-1.3h185.4a.651.651,0,0,1,0,1.3Z" transform="translate(-251.661 -261.429)" fill="#ccc"/><path d="M478.658,433.827H293.26a.651.651,0,0,1,0-1.3h185.4a.651.651,0,0,1,0,1.3Z" transform="translate(-251.661 -289.737)" fill="#ccc"/><path d="M516.3,586.615c0-5.03-18.931-9.107-42.284-9.107s-42.284,4.077-42.284,9.107c0,3.224,7.783,6.054,19.516,7.672v49.9a4.228,4.228,0,0,0,8.457,0v-49c4.47.346,9.287.536,14.311.536s9.841-.19,14.311-.536v49a4.228,4.228,0,0,0,8.457,0v-49.9C508.516,592.669,516.3,589.839,516.3,586.615Z" transform="translate(-300.282 -340.406)" fill="#ccc"/><path d="M319.562,444.38h7.975l3.794-30.762h-11.77Z" transform="translate(-111.681 -144.552)" fill="#a0616a"/><path d="M0,0H25.065V9.684H9.684A9.684,9.684,0,0,1,0,0H0Z" transform="translate(231.236 307.233) rotate(179.997)" fill="#2f2e41"/><path d="M333.753,436.4l7.609-2.388-5.589-30.486-11.231,3.524Z" transform="translate(-113.422 -141.026)" fill="#a0616a"/><path d="M0,0H25.065V9.684H9.684A9.684,9.684,0,0,1,0,0H0Z" transform="translate(244.832 295.45) rotate(162.577)" fill="#2f2e41"/><path d="M529.3,611.783l-14.589-38.3c-3.273.769-30.722,6.842-39.915-2.946-3.151-3.355-3.765-8.215-1.826-14.447l5.365-6.742.167.009c2.029.107,49.722,2.78,52.992,17.166,2.757,12.129,7.791,34.741,9.268,41.383a2.938,2.938,0,0,1-1.831,3.372l-5.867,2.2a2.9,2.9,0,0,1-1.023.186,2.936,2.936,0,0,1-2.741-1.884Z" transform="translate(-314.309 -330.566)" fill="#2f2e41"/><path d="M516.3,618.783l-14.589-38.3c-3.273.769-30.722,6.842-39.915-2.946-3.151-3.355-3.765-8.215-1.826-14.447l5.365-6.742.167.009c2.029.107,49.722,2.78,52.992,17.166,2.757,12.129,7.791,34.741,9.268,41.383a2.938,2.938,0,0,1-1.831,3.372l-5.867,2.2a2.9,2.9,0,0,1-1.023.186,2.936,2.936,0,0,1-2.741-1.885Z" transform="translate(-309.766 -333.013)" fill="#2f2e41"/><path d="M551.818,509.75a6.844,6.844,0,0,0-.576.912l-32.084,3.38-4.618-6.332-10.467,5.721,9.071,15.366,39.348-10.033a6.828,6.828,0,1,0-.674-9.014Z" transform="translate(-325.564 -315.781)" fill="#a0616a"/><path d="M458.235,536.016a2.932,2.932,0,0,1-1.183-2.829c1.81-11.932-.273-29.025-2.338-41.264a16.13,16.13,0,0,1,17.928-18.71,51.962,51.962,0,0,1,6.448,1.271h0A16,16,0,0,1,491.178,490.4c-.309,11.81,2.089,26.545,3.134,32.331a2.939,2.939,0,0,1-.542,2.284,2.857,2.857,0,0,1-2.014,1.138c-11.584,1.182-24.077,6.832-30.493,10.094a2.929,2.929,0,0,1-1.333.326A2.881,2.881,0,0,1,458.235,536.016Z" transform="translate(-308.234 -303.912)" fill="#29e2ff"/><path d="M503.654,508.042a2.908,2.908,0,0,1-1.609-1.56l-6.461-14.924a7.481,7.481,0,1,1,13.731-5.943l6.461,14.924a2.931,2.931,0,0,1-1.524,3.849l-8.358,3.618a2.907,2.907,0,0,1-2.24.036Z" transform="translate(-322.382 -306.714)" fill="#29e2ff"/><path d="M504.819,507.75a6.849,6.849,0,0,0-.576.912l-32.084,3.38-4.618-6.332-10.467,5.721,9.071,15.366,39.348-10.033a6.828,6.828,0,1,0-.674-9.014Z" transform="translate(-309.139 -315.082)" fill="#a0616a"/><path d="M456.654,509.042a2.908,2.908,0,0,1-1.609-1.56l-6.461-14.924a7.481,7.481,0,1,1,13.731-5.943l6.461,14.924a2.931,2.931,0,0,1-1.523,3.849l-8.358,3.618a2.907,2.907,0,0,1-2.24.036Z" transform="translate(-305.956 -307.064)" fill="#29e2ff"/><circle cx="15.977" cy="15.977" r="15.977" transform="translate(147.241 132.27)" fill="#a0616a"/><path d="M458.788,439.935A1.389,1.389,0,0,1,460,438.1a3.207,3.207,0,0,1,2.261,1.116,9,9,0,0,0,2,1.715,1.719,1.719,0,0,0,2.262-.409,3.146,3.146,0,0,0-.12-2.442,24.009,24.009,0,0,1-1.06-6.356,11.191,11.191,0,0,1,1.6-6.8c1.72-2.423,4.8-3.343,7.706-3.276s5.774.965,8.656,1.533c1,.2,2.165.3,2.831-.475.708-.82.448-2.148.147-3.255-.781-2.874-1.61-5.845-3.425-8.165A12.294,12.294,0,0,0,475,406.874a18.825,18.825,0,0,0-8.758.994,23.481,23.481,0,0,0-11.5,8.013,19.018,19.018,0,0,0-3.629,14.051,17.348,17.348,0,0,0,6.431,10.964Z" transform="translate(-306.993 -280.722)" fill="#2f2e41"/><path d="M368.707,499.576a79.391,79.391,0,0,1,6.571-25.056q1.483-3.313,3.264-6.48a.484.484,0,0,0-.835-.488,80.485,80.485,0,0,0-8.956,24.708q-.672,3.632-1.011,7.316c-.057.619.91.615.967,0Z" transform="translate(-277.917 -301.9)" fill="#3f3d56"/><circle cx="6.124" cy="6.124" r="6.124" transform="translate(96.843 155.443)" fill="#29e2ff"/><path d="M369.853,505.912a51.5,51.5,0,0,1,4.263-16.255q.962-2.149,2.118-4.2a.314.314,0,0,0-.542-.317,52.217,52.217,0,0,0-5.81,16.029q-.436,2.356-.656,4.746C369.189,506.314,369.816,506.311,369.853,505.912Z" transform="translate(-278.437 -308.073)" fill="#3f3d56"/><circle cx="3.973" cy="3.973" r="3.973" transform="translate(95.343 170.441)" fill="#29e2ff"/><path d="M364.582,505.661a51.5,51.5,0,0,1-6.637-15.439q-.563-2.286-.916-4.617a.314.314,0,0,0-.622.084,52.215,52.215,0,0,0,5.278,16.212q1.105,2.126,2.4,4.145c.218.34.711-.048.495-.386Z" transform="translate(-273.957 -308.196)" fill="#3f3d56"/><circle cx="3.973" cy="3.973" r="3.973" transform="translate(78.472 170.162)" fill="#29e2ff"/><path d="M350.224,516.213v-7.806a2.931,2.931,0,0,1,2.927-2.927h18.214a2.931,2.931,0,0,1,2.927,2.927v7.806a2.931,2.931,0,0,1-2.927,2.927H353.151A2.931,2.931,0,0,1,350.224,516.213Z" transform="translate(-271.797 -315.233)" fill="#ccc"/><rect width="55.944" height="4.554" rx="2.277" transform="translate(188.045 198.721)" fill="#ccc"/><path d="M620.856,503.84h-57.9a4.233,4.233,0,0,1-4.228-4.228V467.736a4.233,4.233,0,0,1,4.228-4.228h57.9a4.233,4.233,0,0,1,4.228,4.228v31.875A4.233,4.233,0,0,1,620.856,503.84Z" transform="translate(-344.667 -300.565)" fill="#ccc"/><circle cx="3.903" cy="3.903" r="3.903" transform="translate(243.339 179.206)" fill="#fff"/><path d="M835.3,586.615c0-5.03-18.931-9.107-42.284-9.107s-42.284,4.077-42.284,9.107c0,3.224,7.783,6.054,19.516,7.672v49.9a4.228,4.228,0,0,0,8.457,0v-49c4.47.346,9.287.536,14.311.536s9.841-.19,14.311-.536v49a4.228,4.228,0,0,0,8.457,0v-49.9C827.516,592.669,835.3,589.839,835.3,586.615Z" transform="translate(-411.767 -340.406)" fill="#ccc"/><circle cx="18.214" cy="18.214" r="18.214" transform="translate(367.709 126.422)" fill="#2f2e41"/><path d="M517.254,445.38h-7.975l-3.794-30.762h11.77Z" transform="translate(-176.659 -144.902)" fill="#ffb8b8"/><path d="M497.357,458.4h15.381v9.684H487.673A9.684,9.684,0,0,1,497.357,458.4Z" transform="translate(-170.434 -160.204)" fill="#2f2e41"/><path d="M500.351,437.4l-7.609-2.388,5.589-30.486,11.231,3.524Z" transform="translate(-172.205 -141.376)" fill="#ffb8b8"/><path d="M9.684,0H25.065V9.684H0A9.684,9.684,0,0,1,9.684,0Z" transform="translate(306.542 286.859) rotate(17.423)" fill="#2f2e41"/><path d="M733.369,614.669a2.9,2.9,0,0,1-1.023-.186l-5.867-2.2a2.938,2.938,0,0,1-1.831-3.372c1.477-6.642,6.512-29.254,9.268-41.383,3.269-14.386,50.963-17.06,52.992-17.166l.167-.009,5.365,6.742c1.939,6.231,1.324,11.092-1.826,14.447-9.193,9.788-36.642,3.714-39.915,2.946l-14.589,38.3A2.936,2.936,0,0,1,733.369,614.669Z" transform="translate(-402.628 -330.916)" fill="#2f2e41"/><path d="M746.369,621.669a2.9,2.9,0,0,1-1.023-.186l-5.867-2.2a2.938,2.938,0,0,1-1.831-3.372c1.477-6.642,6.512-29.254,9.268-41.383,3.269-14.386,50.963-17.06,52.992-17.166l.167-.009,5.365,6.742c1.939,6.231,1.324,11.092-1.826,14.447-9.193,9.788-36.642,3.714-39.915,2.946l-14.589,38.3A2.936,2.936,0,0,1,746.369,621.669Z" transform="translate(-407.171 -333.362)" fill="#2f2e41"/><path d="M718.4,510.75a6.845,6.845,0,0,1,.576.912l32.084,3.38,4.618-6.332,10.467,5.721L757.078,529.8,717.73,519.764a6.828,6.828,0,1,1,.674-9.014Z" transform="translate(-396.182 -316.131)" fill="#ffb8b8"/><path d="M821.112,537.575a2.927,2.927,0,0,1-1.333-.326c-6.416-3.262-18.908-8.912-30.493-10.094a2.857,2.857,0,0,1-2.014-1.138,2.939,2.939,0,0,1-.542-2.284c1.045-5.787,3.443-20.522,3.134-32.331a16,16,0,0,1,12.088-15.917h0a51.949,51.949,0,0,1,6.448-1.271,16.13,16.13,0,0,1,17.928,18.71c-2.066,12.239-4.148,29.332-2.338,41.264a2.932,2.932,0,0,1-1.183,2.829A2.88,2.88,0,0,1,821.112,537.575Z" transform="translate(-424.332 -304.262)" fill="#29e2ff"/><path d="M786.424,509.249a2.924,2.924,0,0,1-1.162-.243l-8.358-3.618a2.931,2.931,0,0,1-1.523-3.849l6.461-14.924a7.481,7.481,0,0,1,13.731,5.943l-6.461,14.924a2.934,2.934,0,0,1-2.687,1.767Z" transform="translate(-420.298 -307.064)" fill="#29e2ff"/><circle cx="15.977" cy="15.977" r="15.977" transform="translate(369.281 132.92)" fill="#ffb8b8"/><path d="M796.893,423.922a57.628,57.628,0,0,0,24.932,8.215l-2.628-3.149a19.313,19.313,0,0,0,5.966,1.185,6.533,6.533,0,0,0,5.325-2.493,6.077,6.077,0,0,0,.407-5.614,11.51,11.51,0,0,0-3.621-4.528,21.558,21.558,0,0,0-20.065-3.586,12.885,12.885,0,0,0-5.993,3.844c-1.515,1.869-4.431,3.533-3.655,5.81Z" transform="translate(-427.9 -282.874)" fill="#2f2e41"/><path d="M794.865,402.734A49.106,49.106,0,0,0,777,391.181c-4.319-1.6-9.019-2.588-13.534-1.68s-8.785,4.032-10.044,8.462c-1.03,3.622.034,7.522,1.632,10.932s3.732,6.572,5.025,10.109a23.072,23.072,0,0,1-23.216,30.94c4.436.595,8.525,2.679,12.861,3.789s9.454,1.034,12.676-2.072c3.409-3.287,3.478-8.631,3.313-13.363l-.735-21.106c-.125-3.588-.232-7.291,1.062-10.64s4.369-6.281,7.959-6.251c2.721.023,5.129,1.671,7.311,3.3s4.491,3.36,7.2,3.6,5.8-1.764,5.6-4.477" transform="translate(-406.92 -274.58)" fill="#2f2e41"/><path d="M482.2,281.087l36.789.868,5.33,39.328-33.974.762Z" transform="translate(-168.52 -98.235)" fill="#e6e6e6"/><path d="M765.4,508.75a6.842,6.842,0,0,1,.576.912l32.084,3.38,4.618-6.332,10.467,5.721L804.078,527.8,764.73,517.764a6.828,6.828,0,1,1,.674-9.014Z" transform="translate(-412.608 -315.432)" fill="#ffb8b8"/><path d="M833.424,510.249a2.924,2.924,0,0,1-1.162-.243l-8.358-3.618a2.931,2.931,0,0,1-1.523-3.849l6.461-14.924a7.481,7.481,0,1,1,13.731,5.943l-6.461,14.924A2.934,2.934,0,0,1,833.424,510.249Z" transform="translate(-436.723 -307.413)" fill="#29e2ff"/><path d="M581.866,524.508H322.96a4.228,4.228,0,1,0,0,8.457h7.481v92.048a4.228,4.228,0,1,0,8.457,0V541.09l47.4,85.919a4.228,4.228,0,0,0,7.324-4.228l-49.553-89.816h226.41v.055L520.959,622.78a4.228,4.228,0,1,0,7.323,4.228l42.2-76.486v74.491a4.228,4.228,0,0,0,8.457,0V535.194l1.23-2.23h1.7a4.228,4.228,0,0,0,0-8.457Z" transform="translate(-260.791 -321.883)" fill="#3f3d56"/><path d="M710.709,686.142H230.437a.775.775,0,0,1,0-1.549H710.709a.775.775,0,0,1,0,1.549Z" transform="translate(-229.662 -377.83)" fill="#3f3d56"/></g><rect width="1920" height="714" transform="translate(0 2295)" fill="#eefdff"/></g></svg>