<?xml version="1.0" encoding="utf-8"?>
<!-- Generator: Adobe Illustrator 23.0.1, SVG Export Plug-In . SVG Version: 6.00 Build 0)  -->
<svg version="1.1" id="Calque_1" xmlns="http://www.w3.org/2000/svg" xmlns:xlink="http://www.w3.org/1999/xlink" x="0px" y="0px"
	 viewBox="0 0 1921.5 2361" style="enable-background:new 0 0 1921.5 2361;" xml:space="preserve">
<style type="text/css">
	.st0{fill:#39A4DD;}
	.st1{fill:#359EDB;}
	.st2{fill:#2F90D6;}
	.st3{fill:#298ECC;}
</style>
<title>bg5</title>
<rect x="0.5" class="st0" width="1920" height="1080"/>
<path class="st1" d="M0.5,189c0,0,28.5,16.5,41.5,43.5s38,35,50,36c8.2,0.7,23.8-6.5,32.9-11.2c3.9-2,7.6-4.3,11.2-6.9
	c7.6-5.6,24.5-16.6,38-15.9c18,1,43,16,53,47s34,41,34,41s27,10,58,0s55,26,55,26s18,25,22,56s111,59,111,59s27,8,46-10s22-40,22-40
	s2-30,25-49c12.7-10.5,25-13,33.5-13.3c5.2-0.1,10.4,0.8,15.2,2.8c7.1,2.8,22.5,8.2,32.2,7.5c13-1,37-16,44-25s36-21,54-19
	c13.1,1.5,26.2,8.2,32.4,11.8c2.3,1.3,4.4,2.9,6.4,4.6c8.9,7.9,36.9,33.5,45.2,53.6c10,24,156,68,190,47s55-28,83-21s93,54,130,52
	c35.5-1.9,95-22.3,137.8-59.3c4.7-4.1,9.8-7.8,15.2-10.9c46.1-26.4,99-23.8,99-23.8s66,4,94,22s120,75,139,76s72-13,92-4
	s39,49,42,57s21,31,36,31c-1,26,0,375,0,375l-1920,1L0.5,189z"/>
<path class="st2" d="M0.5,547c0,0,62-6,104,16c21.7,11.4,117.2,110,205.2,116c82.4,5.6,140.3-82.1,171.8-77
	c30,4.9,49.5,41.5,56.5,59.5s51,61,83,76s57,43,66,66c4.9,12.5,10.6,36.9,22.5,58c14.5,25.8,43.3,40.4,72.5,35.5
	c16.4-2.8,9.5-8.2,29-7.5c26,1,102,45,125,41s34-30,57-32s39,30,65,28s148-107,214-110s149,49,149,49s70,41,114,43s110-51,164-56
	s165,59,187,59s35-10,35-10l0.5,721.5H2.5L0.5,547z"/>
<path class="st3" d="M0,1120.5c0,0,28.5,14.4,41.5,38.1c13,23.7,38,30.6,50,31.5c8.2,0.6,23.8-5.7,32.9-9.8
	c3.9-1.8,7.7-3.8,11.2-6.1c7.6-4.9,24.5-14.6,38-13.9c18,0.9,43,14,53,41.1s34,35.9,34,35.9s27,8.8,58,0s55,22.8,55,22.8
	s18,21.9,22,49s104.9,46.3,104.9,46.3s31,9.3,50-6.5c11.5-9.7,21.3-18.8,24.1-31.9c0,0,2-26.3,25-42.9c12.7-9.1,25-11.4,33.5-11.6
	c5.2-0.1,10.4,0.8,15.2,2.4c7.1,2.4,22.5,7.2,32.2,6.5c13-0.9,37-14,44-21.9c7-7.9,36-18.4,54-16.6c13.1,1.3,26.2,7.2,32.4,10.3
	c2.3,1.2,4.4,2.5,6.4,4c8.9,6.9,36.9,29.3,45.2,46.9c10,21,156,59.5,190,41.1s55-24.5,83-18.4s93,47.2,130,45.5
	c35.5-1.7,95-19.5,137.8-51.9c4.7-3.6,9.7-6.7,15.2-9.5c46.1-23.1,99-20.8,99-20.8s66,3.5,94,19.2s120,65.7,139,66.5s72-11.4,92-3.5
	c20,7.9,39,42.9,42,49.9c3,7,21,27.1,36,27.1c-1,22.8,1,921.6,1,921.6H0.5L0,1120.5z"/>
</svg>
