<svg xmlns="http://www.w3.org/2000/svg" width="1723.009" height="1091.198" viewBox="0 0 1723.009 1091.198">
  <g id="Groupe_28" data-name="Groupe 28" transform="translate(-107.5 -287.802)">
    <g id="Isolation_Mode" data-name="Isolation Mode" transform="translate(1224.763 485.98) rotate(-31)">
      <path id="Tracé_1" data-name="Tracé 1" d="M85.2,143.027a5.525,5.525,0,0,1-5.144-1.883c-.127-.128,0-.255-.127-.382a4.943,4.943,0,0,1-1.147-2.932,5.285,5.285,0,0,1,3.187-4.972c5.992-1.53,11.985-3.442,16.83-7.777a35.309,35.309,0,0,0,9.69-15.3,8.094,8.094,0,0,0,.51-3.442c-.127-.765-.255-1.785-1.147-2.04a24.273,24.273,0,0,0-3.187,3.06,43.464,43.464,0,0,1-4.845,4.845,13.543,13.543,0,0,1-4.207,2.295H95.1a7.777,7.777,0,0,1-5.1-.128,6.217,6.217,0,0,0-.892-.382c-3.57-1.657-4.717-5.61-5.482-9.307-.382-2.167-.127-5.1-2.295-5.992a2.486,2.486,0,0,0-1.657-.128c-.765.382-1.02,1.275-1.4,2.04-.892,2.295-1.275,4.717-2.04,7.14a25.871,25.871,0,0,1-1.4,3.315,10.832,10.832,0,0,1-2.932,3.442,8.656,8.656,0,0,1-6.5,1.785c-3.952-.51-6.757-3.442-9.562-6.12a9.734,9.734,0,0,0-1.4-1.02,4.717,4.717,0,0,0,0,4.845c1.657,2.55,3.825,4.08,6.12,5.992,4.08,3.315,8.032,6.247,11.6,10.072a21.526,21.526,0,0,1,5.865,11.6c.255,19.125.127,38.249.765,57.5A6.724,6.724,0,0,0,81.074,204c2.932,2.295,6.375,3.06,9.817,3.442a15.49,15.49,0,0,0,6.375-.893,12.33,12.33,0,0,0,6.247-7.14c4.462-19.89,10.582-40.034,23.2-56.354,15.172-15.172,29.069-32.639,33.149-54.951a60.27,60.27,0,0,0,.892-13.515,67.515,67.515,0,0,0-1.785-12.24,88.539,88.539,0,0,0-12.367-27.157,5.543,5.543,0,0,0-.765-.892A73.513,73.513,0,0,0,121.49,11.352c-.382-.255-.765-.255-1.147-.51C101.218-.123,79.544-2.545,58.124,2.555c-.128,0-.382.255-.51.255A62.211,62.211,0,0,0,46.65,6.762a91.489,91.489,0,0,0-14.535,8.16c-1.657,1.147-3.06,2.295-4.717,3.442A75.653,75.653,0,0,0,15.03,30.732,65.716,65.716,0,0,0,2.281,55.976,69.768,69.768,0,0,0,.368,80.583v1.275c2.422,21.929,12.75,41.564,26.392,58.266,2.295,3.7,3.952,7.9,5.865,11.857.127.255,0,.382.127.637,4.845,11.347,6.247,23.587,6.885,35.7a9.65,9.65,0,0,0,.127,1.912v1.147c.382,1.785.382,3.442.892,5.1a11.216,11.216,0,0,1,.637,1.912,5.544,5.544,0,0,0,.51.892.767.767,0,0,1,.127.51,8.129,8.129,0,0,0,1.02,1.785,5.4,5.4,0,0,1,.637.892,25.489,25.489,0,0,0,5.1,4.717,51.841,51.841,0,0,0,6.757,3.952c6.757,3.315,13.77,5.355,20.909,7.65a27.687,27.687,0,0,1,3.06.892c.382.128.892.128,1.275.255a.966.966,0,0,0,.51.255,21.439,21.439,0,0,1,3.06.892,34.656,34.656,0,0,1,4.845,1.4c.382.128.892.128,1.275.255.637.255,1.147.382,1.785.637.383.127.892.127,1.275.255,6.375,2.167,12.75,3.7,18.487,7.9a11.736,11.736,0,0,1,5.1,8.67,9.678,9.678,0,0,1-2.167,6.63c-.255.128-.382.383-.638.637-3.7,3.187-8.542,2.677-13,1.912-11.857-2.04-22.312-5.992-33.532-9.562-.382-.127-.892-.127-1.275-.255a148.97,148.97,0,0,0-17.63-5c4.59,2.216,4.576.946,0,0a120.586,120.586,0,0,0,14.28,5.5c5.382,1.8,10.808,3.459,16.214,5.179,5.016,1.6,10.033,3.221,14.934,5.147,4.216,1.657,8.7,3.492,12.129,6.538,2.722,2.422,4.455,5.954,3.417,9.6a8.92,8.92,0,0,1-7.023,6.068,24.083,24.083,0,0,1-8.1.04,84.46,84.46,0,0,1-11.057-2.389c-4.747-1.3-9.435-2.779-14.122-4.286-5.267-1.694-10.512-3.459-15.8-5.074q-1.7-.52-3.414-1.01a78.488,78.488,0,0,0,10.716,4.475c1.378.584,2.781.966,4.183,1.476,10.2,3.442,20.654,5.355,30.217,10.837a10.423,10.423,0,0,1,5.61,7.395,8.389,8.389,0,0,1-6.12,9.18c-6.12,1.785-25.991,6.1-36.9-4.816-3.315-3.315-16-18.36,16.612-9.988s18.506,39.217,10.135,57.723a59.316,59.316,0,0,0-4.267-17.184L70.14,355.114l-.881-38.776-8.426,13.711-2.187-23.714" fill="none" stroke="#022160" stroke-linecap="round" stroke-linejoin="round" stroke-width="8"/>
    </g>
    <g id="Layer_2" data-name="Layer 2" transform="translate(1418.223 680.129)">
      <g id="Isolation_Mode-2" data-name="Isolation Mode" transform="translate(0 0)">
        <path id="Tracé_2" data-name="Tracé 2" d="M102.535,275.2H300.218s86.178.067,90.817.067c2.077-2.077,2.238-9.662,2.238-9.662a46.966,46.966,0,0,0-20.113-38.562,47.114,47.114,0,0,0-4.326-41.091,47,47,0,0,0,24.433-41.25q0-1-.042-1.991a35.278,35.278,0,0,0,6.419-63.522,29.508,29.508,0,0,0-28.192-38.159q-1.111,0-2.177.081a32.851,32.851,0,0,0-64.947-6.786h-.75a32.854,32.854,0,0,0-26.9,51.714A31.693,31.693,0,0,0,236.243,121.1a31.674,31.674,0,0,0-17.592,26.951H217.2v-.017a41.758,41.758,0,0,0-81.466-12.91,19.918,19.918,0,0,0-24.125-2.663L70.87,104.409l6.9,57.767h0a19.935,19.935,0,0,0-5.481,20.807,47.033,47.033,0,0,0-34.045,45.206c0,1.086.036,2.166.108,3.232A47.033,47.033,0,0,0,8.5,275.2Z" transform="translate(-8.5 -8.476)" fill="none" stroke="#022160" stroke-linecap="round" stroke-linejoin="round" stroke-width="8"/>
        <path id="Tracé_3" data-name="Tracé 3" d="M332.225,635.66a29.037,29.037,0,0,0-28.074,21.635,29.028,29.028,0,0,0-45.091,24.182" transform="translate(-189.493 -461.526)" fill="none" stroke="#022160" stroke-linecap="round" stroke-linejoin="round" stroke-width="8"/>
        <path id="Tracé_4" data-name="Tracé 4" d="M937.289,706.842a21.934,21.934,0,0,0-21.978,15.3A21.934,21.934,0,0,0,880.4,738.749" transform="translate(-638.322 -512.926)" fill="none" stroke="#022160" stroke-linecap="round" stroke-linejoin="round" stroke-width="8"/>
        <path id="Tracé_5" data-name="Tracé 5" d="M1154.3,263.193a15.2,15.2,0,0,0-18.261-3.268,15.19,15.19,0,0,0-25.23-8.968" transform="translate(-804.76 -180.784)" fill="none" stroke="#022160" stroke-linecap="round" stroke-linejoin="round" stroke-width="8"/>
        <path id="Tracé_6" data-name="Tracé 6" d="M578.156,486.786s-4.8-10.076-13.435-10.076a28.286,28.286,0,0,0-15.351,5.039" transform="translate(-399.201 -346.708)" fill="none" stroke="#022160" stroke-linecap="round" stroke-linejoin="round" stroke-width="8"/>
        <path id="Tracé_7" data-name="Tracé 7" d="M1228.852,489s3.84,4.27,0,10.029-12.472,4.317-12.472,4.317" transform="translate(-881.019 -355.585)" fill="none" stroke="#022160" stroke-linecap="round" stroke-linejoin="round" stroke-width="8"/>
      </g>
    </g>
    <path id="Tracé_8" data-name="Tracé 8" d="M1523.746,946.924H217.523V1379" transform="translate(-105.523)" fill="none" stroke="#022160" stroke-width="9"/>
    <path id="Tracé_9" data-name="Tracé 9" d="M1156,630h-32" fill="none" stroke="#d2a517" stroke-width="6"/>
    <path id="Tracé_12" data-name="Tracé 12" d="M1156,630h-32" transform="translate(227.56 354.811) rotate(-25)" fill="none" stroke="#d2a517" stroke-width="6"/>
    <path id="Tracé_10" data-name="Tracé 10" d="M1176.932,630H1124" transform="matrix(0.899, 0.438, -0.438, 0.899, 399.735, -656.159)" fill="none" stroke="#d2a517" stroke-width="6"/>
    <path id="Tracé_11" data-name="Tracé 11" d="M1176.932,630H1124" transform="translate(2154.809 -723.336) rotate(99)" fill="none" stroke="#d2a517" stroke-width="6"/>
  </g>
</svg>
