<svg xmlns="http://www.w3.org/2000/svg" width="100.2" height="125.25" viewBox="0 0 100.2 125.25">
  <g id="surface1" transform="translate(-0.25)">
    <path id="Tracé_54" data-name="Tracé 54" d="M590.565,363.484l-2.815,3.077,12.8,11.736a14.647,14.647,0,0,1,4.733,10.774v51.1h4.175v-51.1a18.836,18.836,0,0,0-6.091-13.851Zm0,0" transform="translate(-509.01 -314.923)" fill="#fff"/>
    <path id="Tracé_55" data-name="Tracé 55" d="M64.962,0H10.688A10.451,10.451,0,0,0,.25,10.437V114.812A10.451,10.451,0,0,0,10.688,125.25H62.875v-3.735a47.459,47.459,0,0,1,8-26.419,2.087,2.087,0,0,0-.261-2.634L56,77.849a6.77,6.77,0,0,1,.5-10.02,7.031,7.031,0,0,1,9.346.72L86.449,89.155,89.4,86.2,75.4,72.2V10.437A10.451,10.451,0,0,0,64.962,0Zm6.262,68.023-2.43-2.43A11.236,11.236,0,0,0,53.84,64.6a10.947,10.947,0,0,0-.791,16.2L66.472,94.224a51.613,51.613,0,0,0-7.757,26.851H10.688a6.263,6.263,0,0,1-6.263-6.263V108.55H56.612v-4.175H4.425V16.7h66.8Zm0-55.5H4.425V10.437a6.263,6.263,0,0,1,6.263-6.262H64.962a6.263,6.263,0,0,1,6.262,6.262Zm0,0" fill="#fff"/>
    <path id="Tracé_56" data-name="Tracé 56" d="M66.925,172.95h8.35a4.174,4.174,0,0,0,4.175-4.175v-8.35a4.174,4.174,0,0,0-4.175-4.175h-8.35a4.174,4.174,0,0,0-4.175,4.175v8.35A4.175,4.175,0,0,0,66.925,172.95Zm0-12.525h8.35v8.35h-8.35Zm0,0" transform="translate(-54.15 -135.375)" fill="#fff"/>
    <path id="Tracé_57" data-name="Tracé 57" d="M223.175,172.95h8.35a4.174,4.174,0,0,0,4.175-4.175v-8.35a4.174,4.174,0,0,0-4.175-4.175h-8.35A4.174,4.174,0,0,0,219,160.425v8.35A4.174,4.174,0,0,0,223.175,172.95Zm0-12.525h8.35v8.35h-8.35Zm0,0" transform="translate(-189.525 -135.375)" fill="#fff"/>
    <path id="Tracé_58" data-name="Tracé 58" d="M379.425,172.95h8.35a4.174,4.174,0,0,0,4.175-4.175v-8.35a4.174,4.174,0,0,0-4.175-4.175h-8.35a4.174,4.174,0,0,0-4.175,4.175v8.35A4.174,4.174,0,0,0,379.425,172.95Zm0-12.525h8.35v8.35h-8.35Zm0,0" transform="translate(-324.9 -135.375)" fill="#fff"/>
    <path id="Tracé_59" data-name="Tracé 59" d="M66.925,329.2h8.35a4.174,4.174,0,0,0,4.175-4.175v-8.35a4.174,4.174,0,0,0-4.175-4.175h-8.35a4.174,4.174,0,0,0-4.175,4.175v8.35A4.174,4.174,0,0,0,66.925,329.2Zm0-12.525h8.35v8.35h-8.35Zm0,0" transform="translate(-54.15 -270.75)" fill="#fff"/>
    <path id="Tracé_60" data-name="Tracé 60" d="M66.925,485.45h8.35a4.174,4.174,0,0,0,4.175-4.175v-8.35a4.174,4.174,0,0,0-4.175-4.175h-8.35a4.174,4.174,0,0,0-4.175,4.175v8.35A4.174,4.174,0,0,0,66.925,485.45Zm0-12.525h8.35v8.35h-8.35Zm0,0" transform="translate(-54.15 -406.125)" fill="#fff"/>
    <path id="Tracé_61" data-name="Tracé 61" d="M223.175,329.2h8.35a4.174,4.174,0,0,0,4.175-4.175v-8.35a4.174,4.174,0,0,0-4.175-4.175h-8.35A4.174,4.174,0,0,0,219,316.675v8.35A4.174,4.174,0,0,0,223.175,329.2Zm0-12.525h8.35v8.35h-8.35Zm0,0" transform="translate(-189.525 -270.75)" fill="#fff"/>
    <path id="Tracé_62" data-name="Tracé 62" d="M379.425,329.2h8.35a4.174,4.174,0,0,0,4.175-4.175v-8.35a4.174,4.174,0,0,0-4.175-4.175h-8.35a4.174,4.174,0,0,0-4.175,4.175v8.35A4.174,4.174,0,0,0,379.425,329.2Zm0-12.525h8.35v8.35h-8.35Zm0,0" transform="translate(-324.9 -270.75)" fill="#fff"/>
    <path id="Tracé_63" data-name="Tracé 63" d="M223.175,485.45h8.35a4.174,4.174,0,0,0,4.175-4.175v-8.35a4.174,4.174,0,0,0-4.175-4.175h-8.35A4.174,4.174,0,0,0,219,472.925v8.35A4.174,4.174,0,0,0,223.175,485.45Zm0-12.525h8.35v8.35h-8.35Zm0,0" transform="translate(-189.525 -406.125)" fill="#fff"/>
    <path id="Tracé_64" data-name="Tracé 64" d="M66.925,641.7h8.35a4.174,4.174,0,0,0,4.175-4.175v-8.35A4.174,4.174,0,0,0,75.275,625h-8.35a4.174,4.174,0,0,0-4.175,4.175v8.35A4.174,4.174,0,0,0,66.925,641.7Zm0-12.525h8.35v8.35h-8.35Zm0,0" transform="translate(-54.15 -541.5)" fill="#fff"/>
    <path id="Tracé_65" data-name="Tracé 65" d="M223.175,641.7h8.35a4.174,4.174,0,0,0,4.175-4.175v-8.35A4.174,4.174,0,0,0,231.525,625h-8.35A4.174,4.174,0,0,0,219,629.175v8.35A4.174,4.174,0,0,0,223.175,641.7Zm0-12.525h8.35v8.35h-8.35Zm0,0" transform="translate(-189.525 -541.5)" fill="#fff"/>
    <path id="Tracé_66" data-name="Tracé 66" d="M265.875,843.75h4.175v4.175h-4.175Zm0,0" transform="translate(-230.137 -731.025)" fill="#fff"/>
  </g>
</svg>
