<svg xmlns="http://www.w3.org/2000/svg" width="89.801" height="89.802" viewBox="0 0 89.801 89.802">
  <g id="processor" transform="translate(0.5 0.5)">
    <g id="Icons" transform="translate(0 0)">
      <path id="Tracé_24" data-name="Tracé 24" d="M87,90.8H5.806A3.806,3.806,0,0,1,2,87V5.806A3.806,3.806,0,0,1,5.806,2H87A3.806,3.806,0,0,1,90.8,5.806V52.985a1.269,1.269,0,1,1-2.537,0V5.806A1.269,1.269,0,0,0,87,4.537H5.806A1.269,1.269,0,0,0,4.537,5.806V87a1.269,1.269,0,0,0,1.269,1.269H87A1.269,1.269,0,0,0,88.264,87V74.513a1.269,1.269,0,0,1,2.537,0V87A3.806,3.806,0,0,1,87,90.8Z" transform="translate(-2 -2)" fill="#fff" stroke="#fff" stroke-width="1"/>
      <path id="Tracé_25" data-name="Tracé 25" d="M71.269,54.495A1.269,1.269,0,0,1,70,53.226V49.459a1.269,1.269,0,1,1,2.537,0v3.768A1.269,1.269,0,0,1,71.269,54.495Z" transform="translate(16.264 10.406)" fill="#fff" stroke="#fff" stroke-width="1"/>
      <path id="Tracé_26" data-name="Tracé 26" d="M51.64,55.446H28.806A3.806,3.806,0,0,1,25,51.64V28.806A3.806,3.806,0,0,1,28.806,25H51.64a3.806,3.806,0,0,1,3.806,3.806V51.64A3.806,3.806,0,0,1,51.64,55.446ZM28.806,27.537a1.269,1.269,0,0,0-1.269,1.269V51.64a1.269,1.269,0,0,0,1.269,1.269H51.64a1.269,1.269,0,0,0,1.269-1.269V28.806a1.269,1.269,0,0,0-1.269-1.269Z" transform="translate(4.178 4.178)" fill="#fff" stroke="#fff" stroke-width="1"/>
      <path id="Tracé_27" data-name="Tracé 27" d="M30.667,33.715A1.269,1.269,0,0,1,29.4,32.446V20.761l-3.2-3.2a1.269,1.269,0,0,1-.372-.9V3.269a1.269,1.269,0,0,1,2.537,0V16.142l3.2,3.2a1.269,1.269,0,0,1,.372.9v12.21A1.269,1.269,0,0,1,30.667,33.715Z" transform="translate(4.4 -2)" fill="#fff" stroke="#fff" stroke-width="1"/>
      <path id="Tracé_28" data-name="Tracé 28" d="M35.516,33.715a1.269,1.269,0,0,1-1.269-1.269V3.269a1.269,1.269,0,1,1,2.537,0V32.446A1.269,1.269,0,0,1,35.516,33.715Z" transform="translate(6.661 -2)" fill="#fff" stroke="#fff" stroke-width="1"/>
      <path id="Tracé_29" data-name="Tracé 29" d="M41.849,33.715a1.269,1.269,0,0,1-1.269-1.269V21.663a1.269,1.269,0,0,1,.463-.981l6.628-5.441V3.269a1.269,1.269,0,0,1,2.537,0V15.84a1.269,1.269,0,0,1-.463.981l-6.628,5.442V32.446A1.269,1.269,0,0,1,41.849,33.715Z" transform="translate(8.362 -2)" fill="#fff" stroke="#fff" stroke-width="1"/>
      <path id="Tracé_30" data-name="Tracé 30" d="M59.159,25.608a1.269,1.269,0,0,1-.9-2.165l4.208-4.208V3.269a1.269,1.269,0,1,1,2.537,0V19.76a1.268,1.268,0,0,1-.371.9l-4.58,4.58A1.269,1.269,0,0,1,59.159,25.608Z" transform="translate(13.012 -2)" fill="#fff" stroke="#fff" stroke-width="1"/>
      <path id="Tracé_31" data-name="Tracé 31" d="M57.771,27.885a5.115,5.115,0,1,1,5.114-5.114,5.115,5.115,0,0,1-5.114,5.114Zm0-7.691a2.578,2.578,0,1,0,2.576,2.577A2.578,2.578,0,0,0,57.771,20.193Z" transform="translate(11.605 2.205)" fill="#fff" stroke="#fff" stroke-width="1"/>
      <path id="Tracé_32" data-name="Tracé 32" d="M55.316,76.857a1.269,1.269,0,0,1-1.269-1.269V59.1a1.268,1.268,0,0,1,.372-.9L59,53.621a1.269,1.269,0,1,1,1.794,1.8l-4.208,4.207V75.589A1.269,1.269,0,0,1,55.316,76.857Z" transform="translate(11.979 11.765)" fill="#fff" stroke="#fff" stroke-width="1"/>
      <path id="Tracé_33" data-name="Tracé 33" d="M61.941,58.365a5.114,5.114,0,1,1,5.115-5.114,5.114,5.114,0,0,1-5.115,5.114Zm0-7.69a2.577,2.577,0,1,0,2.578,2.577,2.577,2.577,0,0,0-2.578-2.577Z" transform="translate(12.727 10.392)" fill="#fff" stroke="#fff" stroke-width="1"/>
      <path id="Tracé_34" data-name="Tracé 34" d="M21.8,17.693a1.269,1.269,0,0,1-.9-.365L16.694,13.12H3.269a1.269,1.269,0,1,1,0-2.537H17.223a1.268,1.268,0,0,1,.9.372l4.58,4.58a1.269,1.269,0,0,1-.9,2.165Z" transform="translate(-2 0.305)" fill="#fff" stroke="#fff" stroke-width="1"/>
      <path id="Tracé_35" data-name="Tracé 35" d="M20.771,23.588a5.115,5.115,0,1,1,5.114-5.114A5.115,5.115,0,0,1,20.771,23.588Zm0-7.691a2.578,2.578,0,1,0,2.576,2.577A2.578,2.578,0,0,0,20.771,15.9Z" transform="translate(1.668 1.051)" fill="#fff" stroke="#fff" stroke-width="1"/>
      <path id="Tracé_36" data-name="Tracé 36" d="M19.519,76a1.269,1.269,0,0,1-1.269-1.269V61.3l-4.208-4.208A1.268,1.268,0,1,1,15.837,55.3l4.579,4.58a1.269,1.269,0,0,1,.372.9V74.727A1.269,1.269,0,0,1,19.519,76Z" transform="translate(1.135 12.215)" fill="#fff" stroke="#fff" stroke-width="1"/>
      <path id="Tracé_37" data-name="Tracé 37" d="M13.552,60.042a5.114,5.114,0,1,1,5.114-5.114,5.114,5.114,0,0,1-5.114,5.114Zm0-7.69a2.577,2.577,0,1,0,2.577,2.577,2.577,2.577,0,0,0-2.577-2.577Z" transform="translate(-0.271 10.843)" fill="#fff" stroke="#fff" stroke-width="1"/>
      <path id="Tracé_38" data-name="Tracé 38" d="M43.833,65.2a5.114,5.114,0,1,1,5.114-5.114A5.114,5.114,0,0,1,43.833,65.2Zm0-7.69a2.577,2.577,0,1,0,2.577,2.577A2.577,2.577,0,0,0,43.833,57.506Z" transform="translate(7.862 12.227)" fill="#fff" stroke="#fff" stroke-width="1"/>
      <path id="Tracé_39" data-name="Tracé 39" d="M32.083,65.2A5.114,5.114,0,1,1,37.2,60.083,5.114,5.114,0,0,1,32.083,65.2Zm0-7.69a2.577,2.577,0,1,0,2.576,2.577,2.577,2.577,0,0,0-2.576-2.577Z" transform="translate(4.706 12.227)" fill="#fff" stroke="#fff" stroke-width="1"/>
      <path id="Tracé_40" data-name="Tracé 40" d="M64.083,36.866A5.115,5.115,0,1,1,69.2,31.752a5.115,5.115,0,0,1-5.114,5.114Zm0-7.691a2.578,2.578,0,1,0,2.576,2.577,2.578,2.578,0,0,0-2.576-2.577Z" transform="translate(13.301 4.617)" fill="#fff" stroke="#fff" stroke-width="1"/>
      <path id="Tracé_41" data-name="Tracé 41" d="M72.6,32.207H66.3a1.269,1.269,0,0,1,0-2.537h6.3a1.269,1.269,0,0,1,0,2.537Z" transform="translate(14.929 5.432)" fill="#fff" stroke="#fff" stroke-width="1"/>
      <path id="Tracé_42" data-name="Tracé 42" d="M63.454,32.207H48.269a1.269,1.269,0,1,1,0-2.537H63.454a1.269,1.269,0,1,1,0,2.537Z" transform="translate(10.087 5.432)" fill="#fff" stroke="#fff" stroke-width="1"/>
      <path id="Tracé_43" data-name="Tracé 43" d="M12.083,44.2A5.114,5.114,0,1,1,17.2,39.083,5.114,5.114,0,0,1,12.083,44.2Zm0-7.69a2.577,2.577,0,1,0,2.577,2.577,2.577,2.577,0,0,0-2.577-2.577Z" transform="translate(-0.665 6.587)" fill="#fff" stroke="#fff" stroke-width="1"/>
      <path id="Tracé_44" data-name="Tracé 44" d="M9.573,39.537h-6.3a1.269,1.269,0,1,1,0-2.537h6.3a1.269,1.269,0,0,1,0,2.537Z" transform="translate(-2 7.401)" fill="#fff" stroke="#fff" stroke-width="1"/>
      <path id="Tracé_45" data-name="Tracé 45" d="M29.484,39.537H14.3A1.269,1.269,0,0,1,14.3,37H29.484a1.269,1.269,0,1,1,0,2.537Z" transform="translate(0.963 7.401)" fill="#fff" stroke="#fff" stroke-width="1"/>
      <path id="Tracé_46" data-name="Tracé 46" d="M32.446,30.2H3.269a1.269,1.269,0,0,1,0-2.537H32.446a1.269,1.269,0,0,1,0,2.537Z" transform="translate(-2 4.894)" fill="#fff" stroke="#fff" stroke-width="1"/>
      <path id="Tracé_47" data-name="Tracé 47" d="M43.019,74.946a1.269,1.269,0,0,1-1.269-1.269V62.3a1.269,1.269,0,0,1,2.537,0V73.678A1.269,1.269,0,0,1,43.019,74.946Z" transform="translate(8.676 13.855)" fill="#fff" stroke="#fff" stroke-width="1"/>
      <path id="Tracé_48" data-name="Tracé 48" d="M43.019,59.648a1.269,1.269,0,0,1-1.269-1.269V48.269a1.269,1.269,0,0,1,2.537,0V58.379A1.269,1.269,0,0,1,43.019,59.648Z" transform="translate(8.676 10.087)" fill="#fff" stroke="#fff" stroke-width="1"/>
      <path id="Tracé_49" data-name="Tracé 49" d="M31.519,74.952a1.269,1.269,0,0,1-1.269-1.269v-11.4a1.269,1.269,0,1,1,2.537,0v11.4A1.269,1.269,0,0,1,31.519,74.952Z" transform="translate(5.588 13.849)" fill="#fff" stroke="#fff" stroke-width="1"/>
      <path id="Tracé_50" data-name="Tracé 50" d="M31.519,59.673A1.269,1.269,0,0,1,30.25,58.4V48.269a1.269,1.269,0,1,1,2.537,0V58.4A1.269,1.269,0,0,1,31.519,59.673Z" transform="translate(5.588 10.087)" fill="#fff" stroke="#fff" stroke-width="1"/>
      <path id="Tracé_51" data-name="Tracé 51" d="M38.432,45.2A6.765,6.765,0,1,1,45.2,38.432,6.765,6.765,0,0,1,38.432,45.2Zm0-10.994a4.228,4.228,0,1,0,4.228,4.228A4.228,4.228,0,0,0,38.432,34.2Z" transform="translate(5.968 5.968)" fill="#fff" stroke="#fff" stroke-width="1"/>
    </g>
  </g>
</svg>
