<svg id="programming-language_1_" data-name="programming-language (1)" xmlns="http://www.w3.org/2000/svg" width="138" height="109.25" viewBox="0 0 138 109.25">
  <path id="Tracé_67" data-name="Tracé 67" d="M11.313,34.5A4.314,4.314,0,0,1,7,30.188V4.313a4.313,4.313,0,0,1,8.625,0V30.188A4.314,4.314,0,0,1,11.313,34.5Z" transform="translate(33.25)" fill="#fff"/>
  <path id="Tracé_68" data-name="Tracé 68" d="M19.813,34.5A4.314,4.314,0,0,1,15.5,30.188V4.313a4.313,4.313,0,0,1,8.625,0V30.188A4.314,4.314,0,0,1,19.813,34.5Z" transform="translate(73.625)" fill="#fff"/>
  <path id="Tracé_69" data-name="Tracé 69" d="M19.813,42.5A4.314,4.314,0,0,1,15.5,38.188V12.313a4.313,4.313,0,0,1,8.625,0V38.188A4.314,4.314,0,0,1,19.813,42.5Z" transform="translate(73.625 38)" fill="#fff"/>
  <path id="Tracé_70" data-name="Tracé 70" d="M16.813,42.5A4.314,4.314,0,0,1,12.5,38.188V12.313a4.312,4.312,0,1,1,8.625,0V38.188A4.314,4.314,0,0,1,16.813,42.5Z" transform="translate(59.375 38)" fill="#fff"/>
  <path id="Tracé_71" data-name="Tracé 71" d="M25.563,34.5h-5.75A10.074,10.074,0,0,1,9.75,24.438V10.063A10.074,10.074,0,0,1,19.813,0h5.75A10.074,10.074,0,0,1,35.625,10.063V24.438A10.074,10.074,0,0,1,25.563,34.5ZM19.813,8.625a1.438,1.438,0,0,0-1.437,1.438V24.438a1.438,1.438,0,0,0,1.438,1.438h5.75A1.438,1.438,0,0,0,27,24.438V10.063a1.438,1.438,0,0,0-1.437-1.437Z" transform="translate(46.312)" fill="#fff"/>
  <path id="Tracé_72" data-name="Tracé 72" d="M22.813,42.5h-5.75A10.074,10.074,0,0,1,7,32.438V18.063A10.074,10.074,0,0,1,17.063,8h5.75A10.074,10.074,0,0,1,32.875,18.063V32.438A10.074,10.074,0,0,1,22.813,42.5Zm-5.75-25.875a1.438,1.438,0,0,0-1.438,1.438V32.438a1.438,1.438,0,0,0,1.438,1.437h5.75a1.438,1.438,0,0,0,1.438-1.437V18.063a1.438,1.438,0,0,0-1.437-1.437Z" transform="translate(33.25 38)" fill="#fff"/>
  <path id="Tracé_73" data-name="Tracé 73" d="M133.688,26.125H4.313a4.312,4.312,0,1,1,0-8.625H133.688a4.312,4.312,0,1,1,0,8.625Z" transform="translate(0 83.125)" fill="#fff"/>
  <path id="Tracé_74" data-name="Tracé 74" d="M34.5,85.5a4.314,4.314,0,0,1-4.313-4.312V15.062a1.453,1.453,0,0,0-1.437-1.437h-5.98a4.313,4.313,0,1,1,0-8.625h5.98A10.074,10.074,0,0,1,38.815,15.062V81.188A4.314,4.314,0,0,1,34.5,85.5Z" transform="translate(87.685 23.75)" fill="#fff"/>
  <path id="Tracé_75" data-name="Tracé 75" d="M6.313,85.5A4.314,4.314,0,0,1,2,81.188V15.062A10.074,10.074,0,0,1,12.062,5h5.98a4.313,4.313,0,0,1,0,8.625h-5.98a1.453,1.453,0,0,0-1.437,1.437V81.188A4.314,4.314,0,0,1,6.313,85.5Z" transform="translate(9.5 23.75)" fill="#fff"/>
</svg>
