<svg id="web-programming" xmlns="http://www.w3.org/2000/svg" width="169.104" height="122.964" viewBox="0 0 169.104 122.964">
  <path id="Tracé_17" data-name="Tracé 17" d="M26.04,88.373a11.537,11.537,0,0,1-8.747-19.046L33.911,49.942l-16.633-19.4A11.534,11.534,0,0,1,34.787,15.523l23.059,26.9a11.537,11.537,0,0,1,0,15.019l-23.059,26.9a11.484,11.484,0,0,1-8.747,4.028Z" transform="translate(108.48 11.533)" fill="#fff"/>
  <path id="Tracé_18" data-name="Tracé 18" d="M41.1,88.378a11.539,11.539,0,0,1-8.762-4.028L9.278,57.449a11.537,11.537,0,0,1,0-15.019l23.059-26.9A11.534,11.534,0,0,1,49.846,30.547l-16.618,19.4,16.633,19.4A11.52,11.52,0,0,1,41.1,88.378Z" transform="translate(-6.499 11.527)" fill="#fff"/>
  <path id="Tracé_19" data-name="Tracé 19" d="M22.044,132.965a11.527,11.527,0,0,1-11.253-14.112L33.85,18.933A11.53,11.53,0,1,1,56.324,24.1L33.265,124.018a11.5,11.5,0,0,1-11.222,8.947Z" transform="translate(50.987 -10.001)" fill="#fff"/>
</svg>
