<svg id="Celec_Logo_D" data-name="Celec Logo D" xmlns="http://www.w3.org/2000/svg" width="423.221" height="430.439" viewBox="0 0 423.221 430.439">
  <path id="Path_1" data-name="Path 1" d="M210.622,24.863s131.451-8.97,187.621,134.546c0,0,.427,1.839,3.224,1.345s19.889-4.485,19.889-4.485,3.185-1.166,1.2-8.3-34.572-94-132.151-134.366C217.531-13.445,137.9.162,74.936,50.427-31.81,135.684,6.8,271.844,6.8,271.844s36.475,149.749,194.225,158c0,0,162.877,18.208,222.193-154.772l-25.172-8.3s-15.926,76.242-94.821,118.714c0,0-122.711,61.173-220.329-32.2S42.267,131.558,42.267,131.558c36.813-66.229,100.2-106.4,168.354-106.695Z" transform="translate(0.001 0.043)" fill="#2198ff"/>
  <path id="Path_2" data-name="Path 2" d="M122.818,26.93s1.605.357,1.605-2.378l-2.7-7.1s-1.13-1.248-4.221,0S75.883,36.769,63.548,87.092s15.07,89.381,15.07,89.381,12.187,17.389,24.493,24.7l-14.089,4.578s-1.4,2.527,1.367,2.735,35.372,6.926,35.372,6.926l-4.994-33.678a2.051,2.051,0,0,0-2.972,0l-4.815,12.573a87.925,87.925,0,0,1-36.115-45.032S57.246,104.986,89.408,54.485a39.206,39.206,0,0,1,5.113-6.391,117.053,117.053,0,0,1,28.3-21.164Z" transform="translate(188.805 102.026)" fill="#2198ff"/>
  <path id="Path_3" data-name="Path 3" d="M78.128,227.357v-8.627H57.522V122.843H78.128v-8.326H57.522V20.494H78.128V13.4H40.63V227.357Z" transform="translate(123.443 97.76)" fill="#2198ff"/>
  <path id="Path_4" data-name="Path 4" d="M25.96,75.479H50.307V71.1H32.27V41.89H25.96Z" transform="translate(77.354 156.347)" fill="#2198ff"/>
  <path id="Path_5" data-name="Path 5" d="M17.782,44.905V56.074H35.847v2.988H17.782V71.1H35.847v4.384H11.5V41.89H35.847v3.015Z" transform="translate(36.923 156.347)" fill="#2198ff"/>
</svg>
