<svg xmlns="http://www.w3.org/2000/svg" width="482" height="797" viewBox="0 0 482 797">
  <g id="Dots_2_D" data-name="Dots 2 D" transform="translate(-1071 -3584)">
    <circle id="Ellipse_3" data-name="Ellipse 3" cx="16" cy="16" r="16" transform="translate(1071 3584)" fill="#2198ff"/>
    <circle id="Ellipse_3-2" data-name="Ellipse 3" cx="16" cy="16" r="16" transform="translate(1146 3584)" fill="#2198ff"/>
    <circle id="Ellipse_3-3" data-name="Ellipse 3" cx="16" cy="16" r="16" transform="translate(1221 3584)" fill="#2198ff"/>
    <circle id="Ellipse_3-4" data-name="Ellipse 3" cx="16" cy="16" r="16" transform="translate(1296 3584)" fill="#2198ff"/>
    <circle id="Ellipse_3-5" data-name="Ellipse 3" cx="16" cy="16" r="16" transform="translate(1371 3584)" fill="#2198ff"/>
    <circle id="Ellipse_3-6" data-name="Ellipse 3" cx="16" cy="16" r="16" transform="translate(1446 3584)" fill="#2198ff"/>
    <circle id="Ellipse_3-7" data-name="Ellipse 3" cx="16" cy="16" r="16" transform="translate(1521 3584)" fill="#2198ff"/>
    <circle id="Ellipse_3-8" data-name="Ellipse 3" cx="16" cy="16" r="16" transform="translate(1071 3669)" fill="#2198ff"/>
    <circle id="Ellipse_3-9" data-name="Ellipse 3" cx="16" cy="16" r="16" transform="translate(1146 3669)" fill="#2198ff"/>
    <circle id="Ellipse_3-10" data-name="Ellipse 3" cx="16" cy="16" r="16" transform="translate(1221 3669)" fill="#2198ff"/>
    <circle id="Ellipse_3-11" data-name="Ellipse 3" cx="16" cy="16" r="16" transform="translate(1296 3669)" fill="#2198ff"/>
    <circle id="Ellipse_3-12" data-name="Ellipse 3" cx="16" cy="16" r="16" transform="translate(1371 3669)" fill="#2198ff"/>
    <circle id="Ellipse_3-13" data-name="Ellipse 3" cx="16" cy="16" r="16" transform="translate(1446 3669)" fill="#2198ff"/>
    <circle id="Ellipse_3-14" data-name="Ellipse 3" cx="16" cy="16" r="16" transform="translate(1521 3669)" fill="#2198ff"/>
    <circle id="Ellipse_3-15" data-name="Ellipse 3" cx="16" cy="16" r="16" transform="translate(1071 3754)" fill="#2198ff"/>
    <circle id="Ellipse_3-16" data-name="Ellipse 3" cx="16" cy="16" r="16" transform="translate(1146 3754)" fill="#2198ff"/>
    <circle id="Ellipse_3-17" data-name="Ellipse 3" cx="16" cy="16" r="16" transform="translate(1221 3754)" fill="#2198ff"/>
    <circle id="Ellipse_3-18" data-name="Ellipse 3" cx="16" cy="16" r="16" transform="translate(1296 3754)" fill="#2198ff"/>
    <circle id="Ellipse_3-19" data-name="Ellipse 3" cx="16" cy="16" r="16" transform="translate(1371 3754)" fill="#2198ff"/>
    <circle id="Ellipse_3-20" data-name="Ellipse 3" cx="16" cy="16" r="16" transform="translate(1446 3754)" fill="#2198ff"/>
    <circle id="Ellipse_3-21" data-name="Ellipse 3" cx="16" cy="16" r="16" transform="translate(1521 3754)" fill="#2198ff"/>
    <circle id="Ellipse_3-22" data-name="Ellipse 3" cx="16" cy="16" r="16" transform="translate(1071 3839)" fill="#2198ff"/>
    <circle id="Ellipse_3-23" data-name="Ellipse 3" cx="16" cy="16" r="16" transform="translate(1146 3839)" fill="#2198ff"/>
    <circle id="Ellipse_3-24" data-name="Ellipse 3" cx="16" cy="16" r="16" transform="translate(1221 3839)" fill="#2198ff"/>
    <circle id="Ellipse_3-25" data-name="Ellipse 3" cx="16" cy="16" r="16" transform="translate(1296 3839)" fill="#2198ff"/>
    <circle id="Ellipse_3-26" data-name="Ellipse 3" cx="16" cy="16" r="16" transform="translate(1371 3839)" fill="#2198ff"/>
    <circle id="Ellipse_3-27" data-name="Ellipse 3" cx="16" cy="16" r="16" transform="translate(1446 3839)" fill="#2198ff"/>
    <circle id="Ellipse_3-28" data-name="Ellipse 3" cx="16" cy="16" r="16" transform="translate(1521 3839)" fill="#2198ff"/>
    <circle id="Ellipse_3-29" data-name="Ellipse 3" cx="16" cy="16" r="16" transform="translate(1071 3924)" fill="#2198ff"/>
    <circle id="Ellipse_3-30" data-name="Ellipse 3" cx="16" cy="16" r="16" transform="translate(1146 3924)" fill="#2198ff"/>
    <circle id="Ellipse_3-31" data-name="Ellipse 3" cx="16" cy="16" r="16" transform="translate(1221 3924)" fill="#2198ff"/>
    <circle id="Ellipse_3-32" data-name="Ellipse 3" cx="16" cy="16" r="16" transform="translate(1296 3924)" fill="#2198ff"/>
    <circle id="Ellipse_3-33" data-name="Ellipse 3" cx="16" cy="16" r="16" transform="translate(1371 3924)" fill="#2198ff"/>
    <circle id="Ellipse_3-34" data-name="Ellipse 3" cx="16" cy="16" r="16" transform="translate(1446 3924)" fill="#2198ff"/>
    <circle id="Ellipse_3-35" data-name="Ellipse 3" cx="16" cy="16" r="16" transform="translate(1521 3924)" fill="#2198ff"/>
    <circle id="Ellipse_3-36" data-name="Ellipse 3" cx="16" cy="16" r="16" transform="translate(1071 4009)" fill="#2198ff"/>
    <circle id="Ellipse_3-37" data-name="Ellipse 3" cx="16" cy="16" r="16" transform="translate(1146 4009)" fill="#2198ff"/>
    <circle id="Ellipse_3-38" data-name="Ellipse 3" cx="16" cy="16" r="16" transform="translate(1221 4009)" fill="#2198ff"/>
    <circle id="Ellipse_3-39" data-name="Ellipse 3" cx="16" cy="16" r="16" transform="translate(1296 4009)" fill="#2198ff"/>
    <circle id="Ellipse_3-40" data-name="Ellipse 3" cx="16" cy="16" r="16" transform="translate(1371 4009)" fill="#2198ff"/>
    <circle id="Ellipse_3-41" data-name="Ellipse 3" cx="16" cy="16" r="16" transform="translate(1446 4009)" fill="#2198ff"/>
    <circle id="Ellipse_3-42" data-name="Ellipse 3" cx="16" cy="16" r="16" transform="translate(1521 4009)" fill="#2198ff"/>
    <circle id="Ellipse_3-43" data-name="Ellipse 3" cx="16" cy="16" r="16" transform="translate(1071 4094)" fill="#2198ff"/>
    <circle id="Ellipse_3-44" data-name="Ellipse 3" cx="16" cy="16" r="16" transform="translate(1146 4094)" fill="#2198ff"/>
    <circle id="Ellipse_3-45" data-name="Ellipse 3" cx="16" cy="16" r="16" transform="translate(1221 4094)" fill="#2198ff"/>
    <circle id="Ellipse_3-46" data-name="Ellipse 3" cx="16" cy="16" r="16" transform="translate(1296 4094)" fill="#2198ff"/>
    <circle id="Ellipse_3-47" data-name="Ellipse 3" cx="16" cy="16" r="16" transform="translate(1371 4094)" fill="#2198ff"/>
    <circle id="Ellipse_3-48" data-name="Ellipse 3" cx="16" cy="16" r="16" transform="translate(1446 4094)" fill="#2198ff"/>
    <circle id="Ellipse_3-49" data-name="Ellipse 3" cx="16" cy="16" r="16" transform="translate(1521 4094)" fill="#2198ff"/>
    <circle id="Ellipse_3-50" data-name="Ellipse 3" cx="16" cy="16" r="16" transform="translate(1071 4179)" fill="#2198ff"/>
    <circle id="Ellipse_3-51" data-name="Ellipse 3" cx="16" cy="16" r="16" transform="translate(1146 4179)" fill="#2198ff"/>
    <circle id="Ellipse_3-52" data-name="Ellipse 3" cx="16" cy="16" r="16" transform="translate(1221 4179)" fill="#2198ff"/>
    <circle id="Ellipse_3-53" data-name="Ellipse 3" cx="16" cy="16" r="16" transform="translate(1296 4179)" fill="#2198ff"/>
    <circle id="Ellipse_3-54" data-name="Ellipse 3" cx="16" cy="16" r="16" transform="translate(1371 4179)" fill="#2198ff"/>
    <circle id="Ellipse_3-55" data-name="Ellipse 3" cx="16" cy="16" r="16" transform="translate(1446 4179)" fill="#2198ff"/>
    <circle id="Ellipse_3-56" data-name="Ellipse 3" cx="16" cy="16" r="16" transform="translate(1521 4179)" fill="#2198ff"/>
    <circle id="Ellipse_3-57" data-name="Ellipse 3" cx="16" cy="16" r="16" transform="translate(1071 4264)" fill="#2198ff"/>
    <circle id="Ellipse_3-58" data-name="Ellipse 3" cx="16" cy="16" r="16" transform="translate(1146 4264)" fill="#2198ff"/>
    <circle id="Ellipse_3-59" data-name="Ellipse 3" cx="16" cy="16" r="16" transform="translate(1221 4264)" fill="#2198ff"/>
    <circle id="Ellipse_3-60" data-name="Ellipse 3" cx="16" cy="16" r="16" transform="translate(1296 4264)" fill="#2198ff"/>
    <circle id="Ellipse_3-61" data-name="Ellipse 3" cx="16" cy="16" r="16" transform="translate(1371 4264)" fill="#2198ff"/>
    <circle id="Ellipse_3-62" data-name="Ellipse 3" cx="16" cy="16" r="16" transform="translate(1446 4264)" fill="#2198ff"/>
    <circle id="Ellipse_3-63" data-name="Ellipse 3" cx="16" cy="16" r="16" transform="translate(1521 4264)" fill="#2198ff"/>
    <circle id="Ellipse_3-64" data-name="Ellipse 3" cx="16" cy="16" r="16" transform="translate(1071 4349)" fill="#2198ff"/>
    <circle id="Ellipse_3-65" data-name="Ellipse 3" cx="16" cy="16" r="16" transform="translate(1146 4349)" fill="#2198ff"/>
    <circle id="Ellipse_3-66" data-name="Ellipse 3" cx="16" cy="16" r="16" transform="translate(1221 4349)" fill="#2198ff"/>
    <circle id="Ellipse_3-67" data-name="Ellipse 3" cx="16" cy="16" r="16" transform="translate(1296 4349)" fill="#2198ff"/>
    <circle id="Ellipse_3-68" data-name="Ellipse 3" cx="16" cy="16" r="16" transform="translate(1371 4349)" fill="#2198ff"/>
    <circle id="Ellipse_3-69" data-name="Ellipse 3" cx="16" cy="16" r="16" transform="translate(1446 4349)" fill="#2198ff"/>
    <circle id="Ellipse_3-70" data-name="Ellipse 3" cx="16" cy="16" r="16" transform="translate(1521 4349)" fill="#2198ff"/>
  </g>
</svg>
