<svg xmlns="http://www.w3.org/2000/svg" xmlns:xlink="http://www.w3.org/1999/xlink" width="1920" height="4957" viewBox="0 0 1920 4957">
  <defs>
    <clipPath id="clip-Form_Page_D_1">
      <rect width="1920" height="4957"/>
    </clipPath>
  </defs>
  <g id="Form_Page_D_1" data-name="Form_Page_D – 1" clip-path="url(#clip-Form_Page_D_1)">
    <rect width="1920" height="4957" fill="#08f"/>
    <text id="Form_D" data-name="Form D" transform="translate(299 337)" fill="#2198ff" font-size="120" font-family="Montserrat-Black, Montserrat" font-weight="800"><tspan x="-191.16" y="0">FORM</tspan></text>
    <text id="Celec_D" data-name="Celec D" transform="translate(1656 1105)" fill="#2198ff" font-size="135" font-family="Montserrat-Black, Montserrat" font-weight="800"><tspan x="-232.943" y="0">CELEC</tspan></text>
    <text id="ELECTRONICS_D" data-name="ELECTRONICS D" transform="translate(589 1706)" fill="#2198ff" font-size="135" font-family="Montserrat-Black, Montserrat" font-weight="800"><tspan x="-505.845" y="0">ELECTRONICS</tspan></text>
    <text id="Engineering_D" data-name="Engineering D" transform="translate(1409 2720)" fill="#2198ff" font-size="135" font-family="Montserrat-Black, Montserrat" font-weight="800"><tspan x="-448.538" y="0">Engineering</tspan></text>
    <text id="Innovation_D" data-name="Innovation D" transform="translate(532 4300)" fill="#2198ff" font-size="135" font-family="Montserrat-Black, Montserrat" font-weight="800"><tspan x="-395.28" y="0">Innovation</tspan></text>
    <g id="Celec_Logo_D" data-name="Celec Logo D" transform="translate(1360.638 3164.671)">
      <path id="Path_1" data-name="Path 1" d="M134.521,15.864s83.957-5.729,119.832,85.933c0,0,.273,1.174,2.059.859s12.7-2.864,12.7-2.864,2.034-.745.769-5.3S247.8,34.454,185.481,8.674C138.934-8.6,88.076.088,47.86,32.191-20.317,86.644,4.344,173.608,4.344,173.608s23.3,95.643,124.049,100.914c0,0,104.028,11.63,141.912-98.851l-16.077-5.3s-10.172,48.7-60.561,75.821c0,0-78.374,39.071-140.722-20.567S27,84.009,27,84.009c23.512-42.3,63.994-67.954,107.526-68.145Z" transform="translate(0.001 0.043)" fill="#2198ff"/>
      <path id="Path_2" data-name="Path 2" d="M100.25,23.3s1.025.228,1.025-1.519l-1.728-4.537s-.721-.8-2.7,0S70.273,29.588,62.395,61.729s9.625,57.087,9.625,57.087,7.784,11.106,15.643,15.776l-9,2.924s-.892,1.614.873,1.747,22.592,4.423,22.592,4.423l-3.189-21.51a1.31,1.31,0,0,0-1.9,0l-3.075,8.03A56.157,56.157,0,0,1,70.9,101.444S58.37,73.157,78.911,40.9a25.04,25.04,0,0,1,3.265-4.082A74.761,74.761,0,0,1,100.25,23.3Z" transform="translate(98.781 59.059)" fill="#2198ff"/>
      <path id="Path_3" data-name="Path 3" d="M64.58,150.052v-5.51H51.419V83.3H64.58V77.983H51.419V17.931H64.58V13.4H40.63V150.052Z" transform="translate(64.162 57.596)" fill="#2198ff"/>
      <path id="Path_4" data-name="Path 4" d="M25.96,63.343H41.51v-2.8H29.99V41.89H25.96Z" transform="translate(40.026 84.722)" fill="#2198ff"/>
      <path id="Path_5" data-name="Path 5" d="M15.512,43.816v7.133H27.05v1.908H15.512v7.686H27.05v2.8H11.5V41.89H27.05v1.926Z" transform="translate(19.427 84.722)" fill="#2198ff"/>
    </g>
    <g id="Dots_D" data-name="Dots D" transform="translate(471 602)">
      <circle id="Ellipse_3" data-name="Ellipse 3" cx="10" cy="10" r="10" transform="translate(0.001 0)" fill="#2198ff"/>
      <ellipse id="Ellipse_3-2" data-name="Ellipse 3" cx="10.5" cy="10" rx="10.5" ry="10" transform="translate(47.001 0)" fill="#2198ff"/>
      <ellipse id="Ellipse_3-3" data-name="Ellipse 3" cx="10.5" cy="10" rx="10.5" ry="10" transform="translate(95.001 0)" fill="#2198ff"/>
      <ellipse id="Ellipse_3-4" data-name="Ellipse 3" cx="10.5" cy="10" rx="10.5" ry="10" transform="translate(143.001 0)" fill="#2198ff"/>
      <ellipse id="Ellipse_3-5" data-name="Ellipse 3" cx="10.5" cy="10" rx="10.5" ry="10" transform="translate(191.001 0)" fill="#2198ff"/>
      <ellipse id="Ellipse_3-6" data-name="Ellipse 3" cx="10.5" cy="10" rx="10.5" ry="10" transform="translate(239.001 0)" fill="#2198ff"/>
      <circle id="Ellipse_3-7" data-name="Ellipse 3" cx="10" cy="10" r="10" transform="translate(287.001 0)" fill="#2198ff"/>
      <circle id="Ellipse_3-8" data-name="Ellipse 3" cx="10" cy="10" r="10" transform="translate(0.001 54)" fill="#2198ff"/>
      <ellipse id="Ellipse_3-9" data-name="Ellipse 3" cx="10.5" cy="10" rx="10.5" ry="10" transform="translate(47.001 54)" fill="#2198ff"/>
      <ellipse id="Ellipse_3-10" data-name="Ellipse 3" cx="10.5" cy="10" rx="10.5" ry="10" transform="translate(95.001 54)" fill="#2198ff"/>
      <ellipse id="Ellipse_3-11" data-name="Ellipse 3" cx="10.5" cy="10" rx="10.5" ry="10" transform="translate(143.001 54)" fill="#2198ff"/>
      <ellipse id="Ellipse_3-12" data-name="Ellipse 3" cx="10.5" cy="10" rx="10.5" ry="10" transform="translate(191.001 54)" fill="#2198ff"/>
      <ellipse id="Ellipse_3-13" data-name="Ellipse 3" cx="10.5" cy="10" rx="10.5" ry="10" transform="translate(239.001 54)" fill="#2198ff"/>
      <circle id="Ellipse_3-14" data-name="Ellipse 3" cx="10" cy="10" r="10" transform="translate(287.001 54)" fill="#2198ff"/>
      <ellipse id="Ellipse_3-15" data-name="Ellipse 3" cx="10" cy="10.5" rx="10" ry="10.5" transform="translate(0.001 108)" fill="#2198ff"/>
      <circle id="Ellipse_3-16" data-name="Ellipse 3" cx="10.5" cy="10.5" r="10.5" transform="translate(47.001 108)" fill="#2198ff"/>
      <circle id="Ellipse_3-17" data-name="Ellipse 3" cx="10.5" cy="10.5" r="10.5" transform="translate(95.001 108)" fill="#2198ff"/>
      <circle id="Ellipse_3-18" data-name="Ellipse 3" cx="10.5" cy="10.5" r="10.5" transform="translate(143.001 108)" fill="#2198ff"/>
      <circle id="Ellipse_3-19" data-name="Ellipse 3" cx="10.5" cy="10.5" r="10.5" transform="translate(191.001 108)" fill="#2198ff"/>
      <circle id="Ellipse_3-20" data-name="Ellipse 3" cx="10.5" cy="10.5" r="10.5" transform="translate(239.001 108)" fill="#2198ff"/>
      <ellipse id="Ellipse_3-21" data-name="Ellipse 3" cx="10" cy="10.5" rx="10" ry="10.5" transform="translate(287.001 108)" fill="#2198ff"/>
      <circle id="Ellipse_3-22" data-name="Ellipse 3" cx="10" cy="10" r="10" transform="translate(0.001 163)" fill="#2198ff"/>
      <ellipse id="Ellipse_3-23" data-name="Ellipse 3" cx="10.5" cy="10" rx="10.5" ry="10" transform="translate(47.001 163)" fill="#2198ff"/>
      <ellipse id="Ellipse_3-24" data-name="Ellipse 3" cx="10.5" cy="10" rx="10.5" ry="10" transform="translate(95.001 163)" fill="#2198ff"/>
      <ellipse id="Ellipse_3-25" data-name="Ellipse 3" cx="10.5" cy="10" rx="10.5" ry="10" transform="translate(143.001 163)" fill="#2198ff"/>
      <ellipse id="Ellipse_3-26" data-name="Ellipse 3" cx="10.5" cy="10" rx="10.5" ry="10" transform="translate(191.001 163)" fill="#2198ff"/>
      <ellipse id="Ellipse_3-27" data-name="Ellipse 3" cx="10.5" cy="10" rx="10.5" ry="10" transform="translate(239.001 163)" fill="#2198ff"/>
      <circle id="Ellipse_3-28" data-name="Ellipse 3" cx="10" cy="10" r="10" transform="translate(287.001 163)" fill="#2198ff"/>
      <circle id="Ellipse_3-29" data-name="Ellipse 3" cx="10" cy="10" r="10" transform="translate(0.001 217)" fill="#2198ff"/>
      <ellipse id="Ellipse_3-30" data-name="Ellipse 3" cx="10.5" cy="10" rx="10.5" ry="10" transform="translate(47.001 217)" fill="#2198ff"/>
      <ellipse id="Ellipse_3-31" data-name="Ellipse 3" cx="10.5" cy="10" rx="10.5" ry="10" transform="translate(95.001 217)" fill="#2198ff"/>
      <ellipse id="Ellipse_3-32" data-name="Ellipse 3" cx="10.5" cy="10" rx="10.5" ry="10" transform="translate(143.001 217)" fill="#2198ff"/>
      <ellipse id="Ellipse_3-33" data-name="Ellipse 3" cx="10.5" cy="10" rx="10.5" ry="10" transform="translate(191.001 217)" fill="#2198ff"/>
      <ellipse id="Ellipse_3-34" data-name="Ellipse 3" cx="10.5" cy="10" rx="10.5" ry="10" transform="translate(239.001 217)" fill="#2198ff"/>
      <circle id="Ellipse_3-35" data-name="Ellipse 3" cx="10" cy="10" r="10" transform="translate(287.001 217)" fill="#2198ff"/>
      <ellipse id="Ellipse_3-36" data-name="Ellipse 3" cx="10" cy="10.5" rx="10" ry="10.5" transform="translate(0.001 271)" fill="#2198ff"/>
      <circle id="Ellipse_3-37" data-name="Ellipse 3" cx="10.5" cy="10.5" r="10.5" transform="translate(47.001 271)" fill="#2198ff"/>
      <circle id="Ellipse_3-38" data-name="Ellipse 3" cx="10.5" cy="10.5" r="10.5" transform="translate(95.001 271)" fill="#2198ff"/>
      <circle id="Ellipse_3-39" data-name="Ellipse 3" cx="10.5" cy="10.5" r="10.5" transform="translate(143.001 271)" fill="#2198ff"/>
      <circle id="Ellipse_3-40" data-name="Ellipse 3" cx="10.5" cy="10.5" r="10.5" transform="translate(191.001 271)" fill="#2198ff"/>
      <circle id="Ellipse_3-41" data-name="Ellipse 3" cx="10.5" cy="10.5" r="10.5" transform="translate(239.001 271)" fill="#2198ff"/>
      <ellipse id="Ellipse_3-42" data-name="Ellipse 3" cx="10" cy="10.5" rx="10" ry="10.5" transform="translate(287.001 271)" fill="#2198ff"/>
      <circle id="Ellipse_3-43" data-name="Ellipse 3" cx="10" cy="10" r="10" transform="translate(0.001 326)" fill="#2198ff"/>
      <ellipse id="Ellipse_3-44" data-name="Ellipse 3" cx="10.5" cy="10" rx="10.5" ry="10" transform="translate(47.001 326)" fill="#2198ff"/>
      <ellipse id="Ellipse_3-45" data-name="Ellipse 3" cx="10.5" cy="10" rx="10.5" ry="10" transform="translate(95.001 326)" fill="#2198ff"/>
      <ellipse id="Ellipse_3-46" data-name="Ellipse 3" cx="10.5" cy="10" rx="10.5" ry="10" transform="translate(143.001 326)" fill="#2198ff"/>
      <ellipse id="Ellipse_3-47" data-name="Ellipse 3" cx="10.5" cy="10" rx="10.5" ry="10" transform="translate(191.001 326)" fill="#2198ff"/>
      <ellipse id="Ellipse_3-48" data-name="Ellipse 3" cx="10.5" cy="10" rx="10.5" ry="10" transform="translate(239.001 326)" fill="#2198ff"/>
      <circle id="Ellipse_3-49" data-name="Ellipse 3" cx="10" cy="10" r="10" transform="translate(287.001 326)" fill="#2198ff"/>
      <circle id="Ellipse_3-50" data-name="Ellipse 3" cx="10" cy="10" r="10" transform="translate(0.001 380)" fill="#2198ff"/>
      <ellipse id="Ellipse_3-51" data-name="Ellipse 3" cx="10.5" cy="10" rx="10.5" ry="10" transform="translate(47.001 380)" fill="#2198ff"/>
      <ellipse id="Ellipse_3-52" data-name="Ellipse 3" cx="10.5" cy="10" rx="10.5" ry="10" transform="translate(95.001 380)" fill="#2198ff"/>
      <ellipse id="Ellipse_3-53" data-name="Ellipse 3" cx="10.5" cy="10" rx="10.5" ry="10" transform="translate(143.001 380)" fill="#2198ff"/>
      <ellipse id="Ellipse_3-54" data-name="Ellipse 3" cx="10.5" cy="10" rx="10.5" ry="10" transform="translate(191.001 380)" fill="#2198ff"/>
      <ellipse id="Ellipse_3-55" data-name="Ellipse 3" cx="10.5" cy="10" rx="10.5" ry="10" transform="translate(239.001 380)" fill="#2198ff"/>
      <circle id="Ellipse_3-56" data-name="Ellipse 3" cx="10" cy="10" r="10" transform="translate(287.001 380)" fill="#2198ff"/>
      <ellipse id="Ellipse_3-57" data-name="Ellipse 3" cx="10" cy="10.5" rx="10" ry="10.5" transform="translate(0.001 434)" fill="#2198ff"/>
      <circle id="Ellipse_3-58" data-name="Ellipse 3" cx="10.5" cy="10.5" r="10.5" transform="translate(47.001 434)" fill="#2198ff"/>
      <circle id="Ellipse_3-59" data-name="Ellipse 3" cx="10.5" cy="10.5" r="10.5" transform="translate(95.001 434)" fill="#2198ff"/>
      <circle id="Ellipse_3-60" data-name="Ellipse 3" cx="10.5" cy="10.5" r="10.5" transform="translate(143.001 434)" fill="#2198ff"/>
      <circle id="Ellipse_3-61" data-name="Ellipse 3" cx="10.5" cy="10.5" r="10.5" transform="translate(191.001 434)" fill="#2198ff"/>
      <circle id="Ellipse_3-62" data-name="Ellipse 3" cx="10.5" cy="10.5" r="10.5" transform="translate(239.001 434)" fill="#2198ff"/>
      <ellipse id="Ellipse_3-63" data-name="Ellipse 3" cx="10" cy="10.5" rx="10" ry="10.5" transform="translate(287.001 434)" fill="#2198ff"/>
      <ellipse id="Ellipse_3-64" data-name="Ellipse 3" cx="10" cy="10.5" rx="10" ry="10.5" transform="translate(0.001 488)" fill="#2198ff"/>
      <circle id="Ellipse_3-65" data-name="Ellipse 3" cx="10.5" cy="10.5" r="10.5" transform="translate(47.001 488)" fill="#2198ff"/>
      <circle id="Ellipse_3-66" data-name="Ellipse 3" cx="10.5" cy="10.5" r="10.5" transform="translate(95.001 488)" fill="#2198ff"/>
      <circle id="Ellipse_3-67" data-name="Ellipse 3" cx="10.5" cy="10.5" r="10.5" transform="translate(143.001 488)" fill="#2198ff"/>
      <circle id="Ellipse_3-68" data-name="Ellipse 3" cx="10.5" cy="10.5" r="10.5" transform="translate(191.001 488)" fill="#2198ff"/>
      <circle id="Ellipse_3-69" data-name="Ellipse 3" cx="10.5" cy="10.5" r="10.5" transform="translate(239.001 488)" fill="#2198ff"/>
      <ellipse id="Ellipse_3-70" data-name="Ellipse 3" cx="10" cy="10.5" rx="10" ry="10.5" transform="translate(287.001 488)" fill="#2198ff"/>
    </g>
    <g id="Dots_2_D" data-name="Dots 2 D" transform="translate(330 2937.797)">
      <ellipse id="Ellipse_3-71" data-name="Ellipse 3" cx="10" cy="10.5" rx="10" ry="10.5" transform="translate(0.001 0.203)" fill="#2198ff"/>
      <ellipse id="Ellipse_3-72" data-name="Ellipse 3" cx="10" cy="10.5" rx="10" ry="10.5" transform="translate(48.001 0.203)" fill="#2198ff"/>
      <ellipse id="Ellipse_3-73" data-name="Ellipse 3" cx="10" cy="10.5" rx="10" ry="10.5" transform="translate(96.001 0.203)" fill="#2198ff"/>
      <ellipse id="Ellipse_3-74" data-name="Ellipse 3" cx="10" cy="10.5" rx="10" ry="10.5" transform="translate(144.001 0.203)" fill="#2198ff"/>
      <ellipse id="Ellipse_3-75" data-name="Ellipse 3" cx="10" cy="10.5" rx="10" ry="10.5" transform="translate(192.001 0.203)" fill="#2198ff"/>
      <circle id="Ellipse_3-76" data-name="Ellipse 3" cx="10.5" cy="10.5" r="10.5" transform="translate(239.001 0.203)" fill="#2198ff"/>
      <circle id="Ellipse_3-77" data-name="Ellipse 3" cx="10.5" cy="10.5" r="10.5" transform="translate(287.001 0.203)" fill="#2198ff"/>
      <ellipse id="Ellipse_3-78" data-name="Ellipse 3" cx="10" cy="10.5" rx="10" ry="10.5" transform="translate(0.001 54.203)" fill="#2198ff"/>
      <ellipse id="Ellipse_3-79" data-name="Ellipse 3" cx="10" cy="10.5" rx="10" ry="10.5" transform="translate(48.001 54.203)" fill="#2198ff"/>
      <ellipse id="Ellipse_3-80" data-name="Ellipse 3" cx="10" cy="10.5" rx="10" ry="10.5" transform="translate(96.001 54.203)" fill="#2198ff"/>
      <ellipse id="Ellipse_3-81" data-name="Ellipse 3" cx="10" cy="10.5" rx="10" ry="10.5" transform="translate(144.001 54.203)" fill="#2198ff"/>
      <ellipse id="Ellipse_3-82" data-name="Ellipse 3" cx="10" cy="10.5" rx="10" ry="10.5" transform="translate(192.001 54.203)" fill="#2198ff"/>
      <circle id="Ellipse_3-83" data-name="Ellipse 3" cx="10.5" cy="10.5" r="10.5" transform="translate(239.001 54.203)" fill="#2198ff"/>
      <circle id="Ellipse_3-84" data-name="Ellipse 3" cx="10.5" cy="10.5" r="10.5" transform="translate(287.001 54.203)" fill="#2198ff"/>
      <circle id="Ellipse_3-85" data-name="Ellipse 3" cx="10" cy="10" r="10" transform="translate(0.001 109.203)" fill="#2198ff"/>
      <circle id="Ellipse_3-86" data-name="Ellipse 3" cx="10" cy="10" r="10" transform="translate(48.001 109.203)" fill="#2198ff"/>
      <circle id="Ellipse_3-87" data-name="Ellipse 3" cx="10" cy="10" r="10" transform="translate(96.001 109.203)" fill="#2198ff"/>
      <circle id="Ellipse_3-88" data-name="Ellipse 3" cx="10" cy="10" r="10" transform="translate(144.001 109.203)" fill="#2198ff"/>
      <circle id="Ellipse_3-89" data-name="Ellipse 3" cx="10" cy="10" r="10" transform="translate(192.001 109.203)" fill="#2198ff"/>
      <ellipse id="Ellipse_3-90" data-name="Ellipse 3" cx="10.5" cy="10" rx="10.5" ry="10" transform="translate(239.001 109.203)" fill="#2198ff"/>
      <ellipse id="Ellipse_3-91" data-name="Ellipse 3" cx="10.5" cy="10" rx="10.5" ry="10" transform="translate(287.001 109.203)" fill="#2198ff"/>
      <circle id="Ellipse_3-92" data-name="Ellipse 3" cx="10" cy="10" r="10" transform="translate(0.001 163.203)" fill="#2198ff"/>
      <circle id="Ellipse_3-93" data-name="Ellipse 3" cx="10" cy="10" r="10" transform="translate(48.001 163.203)" fill="#2198ff"/>
      <circle id="Ellipse_3-94" data-name="Ellipse 3" cx="10" cy="10" r="10" transform="translate(96.001 163.203)" fill="#2198ff"/>
      <circle id="Ellipse_3-95" data-name="Ellipse 3" cx="10" cy="10" r="10" transform="translate(144.001 163.203)" fill="#2198ff"/>
      <circle id="Ellipse_3-96" data-name="Ellipse 3" cx="10" cy="10" r="10" transform="translate(192.001 163.203)" fill="#2198ff"/>
      <ellipse id="Ellipse_3-97" data-name="Ellipse 3" cx="10.5" cy="10" rx="10.5" ry="10" transform="translate(239.001 163.203)" fill="#2198ff"/>
      <ellipse id="Ellipse_3-98" data-name="Ellipse 3" cx="10.5" cy="10" rx="10.5" ry="10" transform="translate(287.001 163.203)" fill="#2198ff"/>
      <ellipse id="Ellipse_3-99" data-name="Ellipse 3" cx="10" cy="10.5" rx="10" ry="10.5" transform="translate(0.001 217.203)" fill="#2198ff"/>
      <ellipse id="Ellipse_3-100" data-name="Ellipse 3" cx="10" cy="10.5" rx="10" ry="10.5" transform="translate(48.001 217.203)" fill="#2198ff"/>
      <ellipse id="Ellipse_3-101" data-name="Ellipse 3" cx="10" cy="10.5" rx="10" ry="10.5" transform="translate(96.001 217.203)" fill="#2198ff"/>
      <ellipse id="Ellipse_3-102" data-name="Ellipse 3" cx="10" cy="10.5" rx="10" ry="10.5" transform="translate(144.001 217.203)" fill="#2198ff"/>
      <ellipse id="Ellipse_3-103" data-name="Ellipse 3" cx="10" cy="10.5" rx="10" ry="10.5" transform="translate(192.001 217.203)" fill="#2198ff"/>
      <circle id="Ellipse_3-104" data-name="Ellipse 3" cx="10.5" cy="10.5" r="10.5" transform="translate(239.001 217.203)" fill="#2198ff"/>
      <circle id="Ellipse_3-105" data-name="Ellipse 3" cx="10.5" cy="10.5" r="10.5" transform="translate(287.001 217.203)" fill="#2198ff"/>
      <circle id="Ellipse_3-106" data-name="Ellipse 3" cx="10" cy="10" r="10" transform="translate(0.001 272.203)" fill="#2198ff"/>
      <circle id="Ellipse_3-107" data-name="Ellipse 3" cx="10" cy="10" r="10" transform="translate(48.001 272.203)" fill="#2198ff"/>
      <circle id="Ellipse_3-108" data-name="Ellipse 3" cx="10" cy="10" r="10" transform="translate(96.001 272.203)" fill="#2198ff"/>
      <circle id="Ellipse_3-109" data-name="Ellipse 3" cx="10" cy="10" r="10" transform="translate(144.001 272.203)" fill="#2198ff"/>
      <circle id="Ellipse_3-110" data-name="Ellipse 3" cx="10" cy="10" r="10" transform="translate(192.001 272.203)" fill="#2198ff"/>
      <ellipse id="Ellipse_3-111" data-name="Ellipse 3" cx="10.5" cy="10" rx="10.5" ry="10" transform="translate(239.001 272.203)" fill="#2198ff"/>
      <ellipse id="Ellipse_3-112" data-name="Ellipse 3" cx="10.5" cy="10" rx="10.5" ry="10" transform="translate(287.001 272.203)" fill="#2198ff"/>
      <circle id="Ellipse_3-113" data-name="Ellipse 3" cx="10" cy="10" r="10" transform="translate(0.001 326.203)" fill="#2198ff"/>
      <circle id="Ellipse_3-114" data-name="Ellipse 3" cx="10" cy="10" r="10" transform="translate(48.001 326.203)" fill="#2198ff"/>
      <circle id="Ellipse_3-115" data-name="Ellipse 3" cx="10" cy="10" r="10" transform="translate(96.001 326.203)" fill="#2198ff"/>
      <circle id="Ellipse_3-116" data-name="Ellipse 3" cx="10" cy="10" r="10" transform="translate(144.001 326.203)" fill="#2198ff"/>
      <circle id="Ellipse_3-117" data-name="Ellipse 3" cx="10" cy="10" r="10" transform="translate(192.001 326.203)" fill="#2198ff"/>
      <ellipse id="Ellipse_3-118" data-name="Ellipse 3" cx="10.5" cy="10" rx="10.5" ry="10" transform="translate(239.001 326.203)" fill="#2198ff"/>
      <ellipse id="Ellipse_3-119" data-name="Ellipse 3" cx="10.5" cy="10" rx="10.5" ry="10" transform="translate(287.001 326.203)" fill="#2198ff"/>
      <ellipse id="Ellipse_3-120" data-name="Ellipse 3" cx="10" cy="10.5" rx="10" ry="10.5" transform="translate(0.001 380.203)" fill="#2198ff"/>
      <ellipse id="Ellipse_3-121" data-name="Ellipse 3" cx="10" cy="10.5" rx="10" ry="10.5" transform="translate(48.001 380.203)" fill="#2198ff"/>
      <ellipse id="Ellipse_3-122" data-name="Ellipse 3" cx="10" cy="10.5" rx="10" ry="10.5" transform="translate(96.001 380.203)" fill="#2198ff"/>
      <ellipse id="Ellipse_3-123" data-name="Ellipse 3" cx="10" cy="10.5" rx="10" ry="10.5" transform="translate(144.001 380.203)" fill="#2198ff"/>
      <ellipse id="Ellipse_3-124" data-name="Ellipse 3" cx="10" cy="10.5" rx="10" ry="10.5" transform="translate(192.001 380.203)" fill="#2198ff"/>
      <circle id="Ellipse_3-125" data-name="Ellipse 3" cx="10.5" cy="10.5" r="10.5" transform="translate(239.001 380.203)" fill="#2198ff"/>
      <circle id="Ellipse_3-126" data-name="Ellipse 3" cx="10.5" cy="10.5" r="10.5" transform="translate(287.001 380.203)" fill="#2198ff"/>
      <ellipse id="Ellipse_3-127" data-name="Ellipse 3" cx="10" cy="10.5" rx="10" ry="10.5" transform="translate(0.001 434.203)" fill="#2198ff"/>
      <ellipse id="Ellipse_3-128" data-name="Ellipse 3" cx="10" cy="10.5" rx="10" ry="10.5" transform="translate(48.001 434.203)" fill="#2198ff"/>
      <ellipse id="Ellipse_3-129" data-name="Ellipse 3" cx="10" cy="10.5" rx="10" ry="10.5" transform="translate(96.001 434.203)" fill="#2198ff"/>
      <ellipse id="Ellipse_3-130" data-name="Ellipse 3" cx="10" cy="10.5" rx="10" ry="10.5" transform="translate(144.001 434.203)" fill="#2198ff"/>
      <ellipse id="Ellipse_3-131" data-name="Ellipse 3" cx="10" cy="10.5" rx="10" ry="10.5" transform="translate(192.001 434.203)" fill="#2198ff"/>
      <circle id="Ellipse_3-132" data-name="Ellipse 3" cx="10.5" cy="10.5" r="10.5" transform="translate(239.001 434.203)" fill="#2198ff"/>
      <circle id="Ellipse_3-133" data-name="Ellipse 3" cx="10.5" cy="10.5" r="10.5" transform="translate(287.001 434.203)" fill="#2198ff"/>
      <circle id="Ellipse_3-134" data-name="Ellipse 3" cx="10" cy="10" r="10" transform="translate(0.001 489.203)" fill="#2198ff"/>
      <circle id="Ellipse_3-135" data-name="Ellipse 3" cx="10" cy="10" r="10" transform="translate(48.001 489.203)" fill="#2198ff"/>
      <circle id="Ellipse_3-136" data-name="Ellipse 3" cx="10" cy="10" r="10" transform="translate(96.001 489.203)" fill="#2198ff"/>
      <circle id="Ellipse_3-137" data-name="Ellipse 3" cx="10" cy="10" r="10" transform="translate(144.001 489.203)" fill="#2198ff"/>
      <circle id="Ellipse_3-138" data-name="Ellipse 3" cx="10" cy="10" r="10" transform="translate(192.001 489.203)" fill="#2198ff"/>
      <ellipse id="Ellipse_3-139" data-name="Ellipse 3" cx="10.5" cy="10" rx="10.5" ry="10" transform="translate(239.001 489.203)" fill="#2198ff"/>
      <ellipse id="Ellipse_3-140" data-name="Ellipse 3" cx="10.5" cy="10" rx="10.5" ry="10" transform="translate(287.001 489.203)" fill="#2198ff"/>
    </g>
    <g id="Lines_D" data-name="Lines D" transform="translate(1507.546 307.483)">
      <g id="Group_18" data-name="Group 18" transform="translate(0 0)">
        <line id="Line_1" data-name="Line 1" y1="216.58" x2="215.033" fill="none" stroke="#2198ff" stroke-linecap="round" stroke-width="13"/>
        <line id="Line_1-2" data-name="Line 1" y1="216.58" x2="215.033" transform="translate(46.41)" fill="none" stroke="#2198ff" stroke-linecap="round" stroke-width="13"/>
        <line id="Line_1-3" data-name="Line 1" y1="216.58" x2="215.033" transform="translate(92.82)" fill="none" stroke="#2198ff" stroke-linecap="round" stroke-width="13"/>
        <line id="Line_1-4" data-name="Line 1" y1="216.58" x2="215.033" transform="translate(139.617)" fill="none" stroke="#2198ff" stroke-linecap="round" stroke-width="13"/>
        <line id="Line_1-5" data-name="Line 1" y1="216.58" x2="215.033" transform="translate(186.027)" fill="none" stroke="#2198ff" stroke-linecap="round" stroke-width="13"/>
        <line id="Line_1-6" data-name="Line 1" y1="216.58" x2="215.033" transform="translate(232.437)" fill="none" stroke="#2198ff" stroke-linecap="round" stroke-width="13"/>
        <line id="Line_1-7" data-name="Line 1" y1="216.58" x2="215.033" transform="translate(278.847)" fill="none" stroke="#2198ff" stroke-linecap="round" stroke-width="13"/>
      </g>
      <g id="Group_19" data-name="Group 19" transform="translate(327.009 0)">
        <line id="Line_1-8" data-name="Line 1" y1="216.58" x2="215.033" fill="none" stroke="#2198ff" stroke-linecap="round" stroke-width="13"/>
        <line id="Line_1-9" data-name="Line 1" y1="216.58" x2="215.033" transform="translate(46.41)" fill="none" stroke="#2198ff" stroke-linecap="round" stroke-width="13"/>
        <line id="Line_1-10" data-name="Line 1" y1="216.58" x2="215.033" transform="translate(92.82)" fill="none" stroke="#2198ff" stroke-linecap="round" stroke-width="13"/>
        <line id="Line_1-11" data-name="Line 1" y1="216.58" x2="215.033" transform="translate(139.617)" fill="none" stroke="#2198ff" stroke-linecap="round" stroke-width="13"/>
        <line id="Line_1-12" data-name="Line 1" y1="216.58" x2="215.033" transform="translate(186.027)" fill="none" stroke="#2198ff" stroke-linecap="round" stroke-width="13"/>
        <line id="Line_1-13" data-name="Line 1" y1="216.58" x2="215.033" transform="translate(232.437)" fill="none" stroke="#2198ff" stroke-linecap="round" stroke-width="13"/>
        <line id="Line_1-14" data-name="Line 1" y1="216.58" x2="215.033" transform="translate(278.847)" fill="none" stroke="#2198ff" stroke-linecap="round" stroke-width="13"/>
      </g>
      <g id="Group_20" data-name="Group 20" transform="translate(654.018 0)">
        <line id="Line_1-15" data-name="Line 1" y1="216.58" x2="215.033" fill="none" stroke="#2198ff" stroke-linecap="round" stroke-width="13"/>
        <line id="Line_1-16" data-name="Line 1" y1="216.58" x2="215.033" transform="translate(46.41)" fill="none" stroke="#2198ff" stroke-linecap="round" stroke-width="13"/>
        <line id="Line_1-17" data-name="Line 1" y1="216.58" x2="215.033" transform="translate(92.82)" fill="none" stroke="#2198ff" stroke-linecap="round" stroke-width="13"/>
        <line id="Line_1-18" data-name="Line 1" y1="216.58" x2="215.033" transform="translate(139.617)" fill="none" stroke="#2198ff" stroke-linecap="round" stroke-width="13"/>
        <line id="Line_1-19" data-name="Line 1" y1="216.58" x2="215.033" transform="translate(186.027)" fill="none" stroke="#2198ff" stroke-linecap="round" stroke-width="13"/>
        <line id="Line_1-20" data-name="Line 1" y1="216.58" x2="215.033" transform="translate(232.437)" fill="none" stroke="#2198ff" stroke-linecap="round" stroke-width="13"/>
        <line id="Line_1-21" data-name="Line 1" y1="216.58" x2="215.033" transform="translate(278.847)" fill="none" stroke="#2198ff" stroke-linecap="round" stroke-width="13"/>
      </g>
    </g>
    <g id="Ellipse_D" data-name="Ellipse D" transform="translate(1714 1598)" fill="none" stroke="#2198ff" stroke-width="36">
      <circle cx="206" cy="206" r="206" stroke="none"/>
      <circle cx="206" cy="206" r="188" fill="none"/>
    </g>
    <g id="Lines_2_D" data-name="Lines 2 D" transform="translate(61.179 2203.936)">
      <line id="Line_2" data-name="Line 2" x2="528.196" fill="none" stroke="#2198ff" stroke-width="15"/>
      <line id="Line_2-2" data-name="Line 2" x2="528.196" transform="translate(0 29.38)" fill="none" stroke="#2198ff" stroke-width="15"/>
      <line id="Line_2-3" data-name="Line 2" x2="528.196" transform="translate(0 58.759)" fill="none" stroke="#2198ff" stroke-width="15"/>
      <line id="Line_2-4" data-name="Line 2" x2="528.196" transform="translate(0 88.139)" fill="none" stroke="#2198ff" stroke-width="15"/>
      <line id="Line_2-5" data-name="Line 2" x2="528.196" transform="translate(0 117.519)" fill="none" stroke="#2198ff" stroke-width="15"/>
      <line id="Line_2-6" data-name="Line 2" x2="528.196" transform="translate(0 146.899)" fill="none" stroke="#2198ff" stroke-width="15"/>
      <line id="Line_2-7" data-name="Line 2" x2="528.196" transform="translate(0 176.278)" fill="none" stroke="#2198ff" stroke-width="15"/>
      <line id="Line_2-8" data-name="Line 2" x2="528.196" transform="translate(0 205.658)" fill="none" stroke="#2198ff" stroke-width="15"/>
    </g>
    <g id="Rectangle_D" data-name="Rectangle D" transform="translate(1920.143 4112.912) rotate(45)" fill="none" stroke="#2198ff" stroke-width="35">
      <rect width="548.096" height="548.096" stroke="none"/>
      <rect x="17.5" y="17.5" width="513.096" height="513.096" fill="none"/>
    </g>
  </g>
</svg>
