<svg xmlns="http://www.w3.org/2000/svg" width="94.708" height="108.756" viewBox="0 0 94.708 108.756"><g transform="translate(0.001 0.043)"><g transform="translate(-0.001 -0.043)"><path d="M47.132,4.784S76.548,3.045,89.118,30.862c0,0,.1.356.721.261s4.451-.869,4.451-.869.713-.226.269-1.608S86.823,10.426,64.987,2.6A55.12,55.12,0,0,0,16.768,9.739C-7.12,26.264,1.521,52.655,1.521,52.655S9.683,81.68,44.985,83.279c0,0,36.449,3.529,49.722-30l-5.633-1.608S85.51,66.45,67.855,74.682c0,0-27.46,11.857-49.305-6.241S9.457,25.464,9.457,25.464A44.967,44.967,0,0,1,47.132,4.784Z" transform="translate(0.001 0.043)" fill="#2c388b"/><path d="M78.623,19.829s.469.1.469-.7L78.3,17.056s-.33-.365-1.234,0S64.9,22.706,61.29,37.423A34.489,34.489,0,0,0,65.7,63.562s3.564,5.085,7.163,7.224l-4.12,1.339s-.409.739.4.8,10.344,2.025,10.344,2.025L78.023,65.1a.6.6,0,0,0-.869,0l-1.408,3.677A25.713,25.713,0,0,1,65.184,55.608s-5.737-12.952,3.668-27.721a11.466,11.466,0,0,1,1.5-1.869,34.232,34.232,0,0,1,8.275-6.189Z" transform="translate(-7.889 -2.171)" fill="#2c388b"/><path d="M52.3,75.275V72.78H45.889V45.05H52.3V42.642H45.889V15.451H52.3V13.4H40.63V75.275Z" transform="translate(-5.31 -1.714)" fill="#2c388b"/><path d="M25.96,52.347h7.58V50.983H27.925V41.89H25.96Z" transform="translate(-3.392 -5.438)" fill="#2c388b"/><path d="M13.456,42.829v3.477H19.08v.93H13.456v3.747H19.08v1.365H11.5V41.89h7.58v.939Z" transform="translate(-1.502 -5.438)" fill="#2c388b"/><path d="M19.372,107.26a6.783,6.783,0,0,0-4.19-2.86c-2.582-.356-7.823,3.216-9.188,9.362s8.119,3.573,10.075,1.165c0,0,.808-.269.452.617s-1.608,4.286-1.608,4.286S3.325,125.176.378,118.491c0,0-2.5-7.823,7.5-15.647a8.337,8.337,0,0,1,1.434-.869c2.121-1.017,7.632-3.016,12.822.487l-1.965,4.555S19.728,107.73,19.372,107.26Z" transform="translate(-0.012 -13.098)" fill="#2c388b"/><path d="M99.372,107.258a6.783,6.783,0,0,0-4.19-2.86c-2.582-.356-7.823,3.216-9.188,9.362s8.119,3.573,10.075,1.165c0,0,.808-.269.452.617s-1.608,4.286-1.608,4.286-11.587,5.346-14.534-1.339c0,0-2.373-7.441,6.746-15.038a11.935,11.935,0,0,1,3.321-1.982,12.512,12.512,0,0,1,11.692.974l-1.965,4.572S99.728,107.727,99.372,107.258Z" transform="translate(-10.47 -13.095)" fill="#2c388b"/><path d="M28.19,100.99l-8.38,20.063H33.449l1.339-3.747h-8.38l2.225-5.077,7.936.087,1.339-3.955H30.415l1.339-3.538,8.562.183L42,100.99Z" transform="translate(-2.588 -13.165)" fill="#2c388b"/><path d="M48.08,100.99,39.7,121.053H53.348l1.33-3.747H46.3l6.911-16.316Z" transform="translate(-5.189 -13.165)" fill="#2c388b"/><path d="M66.97,100.99l-8.38,20.063H72.229l1.339-3.747h-8.38l2.234-5.077,7.936.087,1.33-3.955H69.2l1.339-3.538,8.554.183,1.7-4.016Z" transform="translate(-7.658 -13.165)" fill="#2c388b"/></g></g></svg>