<svg id="Layer_1" data-name="Layer 1" xmlns="http://www.w3.org/2000/svg" viewBox="0 0 1017.8 1017.8"><defs><style>.cls-1,.cls-2{fill:#11bcf4;}.cls-2{stroke:#11bcf4;stroke-miterlimit:10;stroke-width:8px;}</style></defs><title>logoRebAlger</title><path class="cls-1" d="M772.48,255.8c-1.22-.8-3.33,1-4.17,1.64a42.65,42.65,0,0,0-5.36,5.22,52.26,52.26,0,0,0-8.45,11.75c-1.76,3.56-3.29,7.24-4.79,10.92-1.31,3.25-2.64,6.52-3.79,9.83,0,0-2,5.58-4.17,7.74a5.52,5.52,0,0,0-1.7,3.74c-.08,1.78.73,3.63,4.5,3.4,2-.12,4-2,5.34-3.29a30.49,30.49,0,0,0,4.94-6.36A81.85,81.85,0,0,0,760,289.46c2.21-5.38,4.42-10.76,6.52-16.17,1.57-4,3-8.13,4.77-12.12.15-.34.31-.69.48-1,1.65-3.22,1.85-3.62.75-4.33" transform="translate(-135.63 -155)"/><path class="cls-1" d="M737,245.36s-10.75,6.74-16.35,23.81-7.45,22.41-10.32,24.81c0,0-11,6-16,.21s-1.88-10.59-1.88-10.59,4.36-10.56,4.43-13.14-1.4-2.51-1.4-2.51-.57-.58-3.33,3.73c-3.22,5-17.82,15.85-46.22,23.7,0,0,1.61,9.46,27.32,6.08.91.21,1.4,2.36,1.4,2.36S680.08,327.54,703,317a41,41,0,0,0,13.94-11.7,38.9,38.9,0,0,0,6.62-13.57,57.94,57.94,0,0,1,4.93-12.38c3.23-4.52,10.5-25.6,8.53-34" transform="translate(-135.63 -155)"/><path class="cls-1" d="M610.28,309.9c-.5,3.14-3.23,9.53-17.23,7.24a1.7,1.7,0,0,0-.45,0c-1.18.07-6,.7-6,5.86a1.53,1.53,0,0,1,0,.3c-.41,2.72-1.21,3.91-1.76,4.42a2,2,0,0,0-.66,1.41c-.06,2.55.76,9,10.39,9.77a2,2,0,0,0,1.69-.72c1.84-2.2,8.08-8.31,20.62-8.57a2,2,0,0,0,1.43-.61c3.4-3.54,19.24-21.26-6.06-20.76a2,2,0,0,0-2,1.68" transform="translate(-135.63 -155)"/><path class="cls-1" d="M547.62,290.54c-1.34.91-3.81-4-3.22-5.44s2.58,0,2.58,0c1.72,2.27,2,4.52.64,5.44m85.14-54.64c-6.83,1.49-15.21.54-37.82,23.71-6.59,6.75-12,18.06-23.71,27.06,0,0-5,1.22-3.61-9.08a8.49,8.49,0,0,0-1.28-5.66c-3.47-5.37-6.88-8.07-9.35-9.43a7.31,7.31,0,0,0-6.66-.17c-7.19,3.42-25.16,15.09-23.55,45.88-53.35,34.2-96,37.93-109.45,38.17a12.26,12.26,0,0,0-10.94,7.15,33.56,33.56,0,0,0-2.38,8.29c-1.37,8.21-1.62,22.77-6.9,36.56-6.3,11.48-14,13.92-19.49,24.67,0,0,5.74,4.59,12.48-4.87,1.22-1.72,5.95-1.58,9.18-4s10.61-3.8,12.12-37.47c0,0,58.37-7.33,115-44.85,12.31-8.17,17.28-18.3,34.09-28.43a66.15,66.15,0,0,0,7.81-5.5c4-3.28,11.52-8,19.87-6.3,0,0,12.1,5.92,17.48-2.42s10.81-6,6.58-22c0,0-4.59-6-3.3-9s5.17-3.59,5.17-3.59,24.3,6,26.67-13.12c0,0,.86-7.53-8-5.59" transform="translate(-135.63 -155)"/><path class="cls-1" d="M492.07,284.94s-8.72-6.88-18.61,14c0,0-8.5,1.72-11.73-3.44a15.23,15.23,0,0,0,1.08-11c-1.61-5.9,6.84-12.39,12.61-9.9a1.44,1.44,0,0,0,1.8-.62c2.46-4.12,11.08-16.68,20.47-7.56a5,5,0,0,1,1.47,3.22,17.3,17.3,0,0,1-7.09,15.34" transform="translate(-135.63 -155)"/><path class="cls-1" d="M343,350.71a3.11,3.11,0,0,0-.27-.68c-.49-.86-1.69-2.48-3.22-.84-2,2.16,3.19,15.35,3.19,15.35s3.12,8.89,15.89,20.08,12.33,14.63,13.91,14.91,2.29-1.71,2.44-4.44.28-8-4.45-14.49-22.37-22.52-25.39-26a13.09,13.09,0,0,1-2.1-3.93" transform="translate(-135.63 -155)"/><path class="cls-1" d="M1067.64,665.63a2.71,2.71,0,0,0,.6.42c.88.46,2.79,1.17,3.23-1.07.58-2.92-11-11.21-11-11.21s-7.48-5.8-24.56-8.22-18.56-5.57-20.08-4.94-1.06,2.72.28,5.1,4.08,6.95,11.66,9.8,31.49,6.7,36,8a13,13,0,0,1,4,2.17" transform="translate(-135.63 -155)"/><path class="cls-1" d="M896.24,1007.61a3.89,3.89,0,0,0,.19,1c.41,1.25,1.57,3.68,4.05,2,3.25-2.24-.11-20.83-.11-20.83s-1.76-12.43-15.74-30.49S872.15,936.8,870.13,936s-3.52,1.6-4.45,5.1-2.54,10.36,2,20.06,23.72,35.44,26.8,40.75a16.93,16.93,0,0,1,1.74,5.7" transform="translate(-135.63 -155)"/><path class="cls-1" d="M331.51,444.07s-1.57,2.58-2.29.5c-4.52-11.83,3.44-17.64,3.44-17.64,6.17,8.39-1.15,17.14-1.15,17.14m1.58-36.93c-15.7-1.94-18.29,28.61-18.29,28.61-1.86,2.94-15.91-14.56-19.5-18.58s-6.06-1.91-7.13-.53c-.47.62-2.62.53,6.41,20.33S313.37,455.9,316,462.35s-12.33,14.48-12.33,14.48c5.59,72.29-43.57,109.4-43.57,109.4,1.8,6.87,3.28,6.1,7.16,17.16,3.15,9,17.91,20.05,17.91,20.05s1.72-2.79-1.29-8.28A21.88,21.88,0,0,1,278.38,599a104.12,104.12,0,0,0,31.84-43.32c10.61-27.82,8.31-58.8,8.31-58.8s21.37-4,30.12-35c6.17-35.71.15-52.85-15.56-54.78" transform="translate(-135.63 -155)"/><path class="cls-1" d="M334.05,510a3.39,3.39,0,0,0,.78-4c-1-2.17-1.85-5.47,1.27-7.43,4.95-3.13,5.38-6.46,10.54-1.3s11.51,10.87,6.57,17.54-9.47,6.67-9.9,11.18,2.36,9.58-.43,11.19-12.26,6.35-14.31,1.72a30,30,0,0,1-2.73-14.17,4.35,4.35,0,0,0-.51-2.15c-.62-1.18-1.41-3.14-.41-4,1.52-1.33,6.29-6,9.13-8.59" transform="translate(-135.63 -155)"/><path class="cls-1" d="M228.84,557.76a6.81,6.81,0,0,0-.8-4.33c-1.9-3.4-4.69-11.27,9.18-12.56,14.92-1.38,8.74,12.13,6.36,16.52a7.29,7.29,0,0,0-.88,3.09c-.23,3.88-.75,13.39-.75,20.19,0,8.61-9.18,6.49-12.76,5.31-2.46-.82-8.75-6.89-6-13.48,3-7.23,5-10.49,5.68-14.74" transform="translate(-135.63 -155)"/><path class="cls-1" d="M693.14,461.92s13.76-8,24.38-8,28.11-1.43,29.83-1.72,7.74-2.59,4.87-4-29.35-4.58-29.16-4.87-4.49-2.87,0-4a57.89,57.89,0,0,0,12-5.16c1.44-.86-.57-5.45-.57-5.45s-8.42,1.29-10.14,0-3.34-2.73-.65-4.48,17.75-12.52,17.64-13.05,2.69-7-1.94-6-18,10.65-24.2,5.81c0,0-1.07-1.9,1.94-4.77s9.32-7.17,7.88-11.76-10.18,2.3-10.18,2.3a4.44,4.44,0,0,1-4.15.43c-2.16-1,.42-5.88,3.29-10.33s2.15-6.74,1.29-8.17-1.9-4.54-16.69,9c-3.12,2.15-3.55-.7-3.55-.7s-1.45-12.63-2.58-13.76-3.17,2.31-6,4.41-6.94,2.69-6.94.21,7.48-25.76,1.83-27.27-11.13,18.18-12.53,18.94c-1.2,1.66-2.06,1.77-2.89,1.63s-2.76,1.91-5.61-11.21c-2-7.15-4.73-5.11-4.73-5.11s-3.87.43-4.89,10.76c-.65,7.26-3.45,8.12-3.88,8.07s-3.66-.27-4.62-5.33-1.18-30.35-10.5-29.36c-1.66.53-1.66,5.27-1.66,5.27s-3.28,25.92-4.68,26.35-2.09-.7-2.63-2.31-2.1-8.5-4.79-8.34-4.41,4.95-4.41,6.78-.16,5.81-2.15,6.08-6.08.86-11.83-8.61-8.82-15.38-11-14-1.66,4.62-1.23,6.83,7.76,18.91,7.54,20.34-.21,2.95-2.51,3.23-6.59-1.72-10-4.73-8.75-5.74-9.54-3.66-.29,3.52,1.58,6.38,5.66,8,5.52,9.69,0,3-2.08,2.86-20.08-7.6-27.54-13-11.4-7.6-12.62-5.37-.86,4.66,3.52,9.17,21.22,16.93,21.22,16.93,4.09,2.36,3.16,3.58-2.58,1.36-4.38,1.08-10.18-2.73-13.7-2-2.72,1.58-1.86,2.94,10.18,7.24,8.18,8.1c-1.94,2.08-6.24,2.44-9.83,2.51s1.51-.07-3.58.08-14.34-1.37-15.28.79.51,2.86,2.73,3.94,13.62,3.94,17.14,6,5,3.37,4.23,5.31-2.51,3.8-8.61,3.23-5.16,4.37-1.43,5.09,17.42,1.57,17.28,3.15c.9,2.47-2.15,4.34-4,4.23s-20.11-2.08-24.95,11.9c.1,2.27,2.9-.1,5.37-.32s26.36-6.67,41.95-4.3,14.63,1.72,15,.75,1.4-3-4.19-4.95-16.78-1.71-19.9-2.79-4.84-3.66-1.61-5.81,7.2-9.36,11.18-18.29,8.18-17.74,17.64-22.66c8.07-3.69,17.54-11.65,30.66-13.05s28.39-2.47,41,3.12S687.83,406,687.83,406s17.64,21.62,22.81,37.87c0,0-21.52,11.83-21.73,13.44s1.14,4.91,4.23,4.66" transform="translate(-135.63 -155)"/><path class="cls-1" d="M577.26,583.43a5.2,5.2,0,1,0,5.2-5.2,5.2,5.2,0,0,0-5.2,5.2" transform="translate(-135.63 -155)"/><path class="cls-1" d="M698.33,572.51a4.9,4.9,0,1,0,4.9-4.89,4.91,4.91,0,0,0-4.9,4.89" transform="translate(-135.63 -155)"/><path class="cls-1" d="M596.47,570.2s-20.36,0-25.09,1.29-6.46,2.37-5,5.92,9.46,10.29,10.9,13,1.72,7.89,0,9.18-5.45-1.86-7.32-4.3-14.2-18.93-15.63-19.51-1.15-7.74,5.31-10.32,18.14-3.3,22.84-4.59,7.27-1.44,8-10.76-5.23-53.92-4.37-62.53,1.29-17.21,3.87-22.8,9.25-9.68,13.55-10.54,9.68,0,12-5.17,9-18.71,18.28-19.36,14,.08,19.44,10.11,6.31,16.78,25.38,19.51c12.19,2.59,10.18,20.37,10.18,20.37s-.57,67,1.44,70.27,3.87,4.16,8.75,3.59,26.82-2.88,30.69,8.74c0,0-5.52,14.77-17.36,23.49A17.49,17.49,0,0,1,717,564.61s-2.58-4-7.1-3-16.57,6.56-18.93,7-5.7,1.61-6,.21-4.13-11.79-3.84-34-1.33-53.32-2.29-57.73-2.26-11.08-6.35-10.86-9.68-.86-12.15,5.38-1,34-1.29,38.5,2,21,.53,24-2.8,4.73-4.19,5-6.89-1.51-6.35-12c-.43-3.87,1.62-14.2,1.94-26.78s1.18-22.49-1.08-29.58-2.47-19.69-2.47-19.69-2-11.5-8.51-11.65-9.56,11.47-9.56,11.47-4.45,16.64-2.44,29.12,2.44,44.17,2,46.9S628,536.93,626,538.36a4,4,0,0,1-4.77.22,3.41,3.41,0,0,1-.72-.78c-.61-1-2.69-.67-2.69-26,0,0,3.41-23.59,1.8-30.16s-2.8-17.2-8.72-17.63-12.26,1.07-12.9,6.34-1.94,34.21-1.3,39.26,1.51,41.63,1.51,45.39.8,15.16-1.76,15.17" transform="translate(-135.63 -155)"/><path class="cls-1" d="M565.35,467.94s-28,.58-37.71-1.86-19.08-.94-22.38,1-4.73,4.2-6.45,4.2-2.59-2.56-3.3-3.21-2-4.68-5.59-4.1c-3.34-.06-2.8-1.88-4.95-2.69a10.72,10.72,0,0,0-8.12.38c-1.75.79-15.77,7.71-47.6,33-9.39,7.46-24.74,7.42-24.74,7.42a1.67,1.67,0,0,0-.75,2.52c1,1.78,3.06,6.13,14.63,2.85s20.11-9.14,27.21-15.16,15.92-14.85,21.62-17.1,16.13-7.32,22.37-1.62-6.13,12.58-6.13,12.58-22.37,18.4-25.6,19.58-10.43,5.6-16.78,5.17-8.5,1.5-9.14,2.79-.32,4.73,3.66,4.73,11.29,2.26,21.83-1.82,28-16.72,44.64-34.21a23.59,23.59,0,0,1,11.08-6.56s12.9-1.41,20.79.86a51.81,51.81,0,0,0,9,1.79c6.75.7,13.9,1.35,18.1.36,5.49-1.29,12.16-3.76,14.42-5.38s7.1-3.55,6.78-7-2.16-4.73-5.49-3.33a16.94,16.94,0,0,0-1.75.85,41.59,41.59,0,0,1-9.62,4" transform="translate(-135.63 -155)"/><path class="cls-1" d="M689.58,846.13l35.16,7L748,820l3.85,40.52,38.53,10.74-36.71,15.11-1.24,36.41-23.9-26.54L690.19,907l19.3-35.86Zm35.23,65.77,42.1,51,.39-68.55L818.49,868l-54.08-19.28-6.08-67.46-44.09,57.51L657,822l33.73,53.41L664,930Z" transform="translate(-135.63 -155)"/><path class="cls-1" d="M727.88,1031.46c-9.49,4.79-64.88,31.6-129.71,8.39-5.8-2.08-68.2-25.58-96.16-92.29C472.87,878,495.21,795.1,544.6,752.67c62.81-54,161.72-35.86,162-33.56.15,1.27-29.55-.44-65.18,17.42-14,7-49.87,25.66-70.34,67.77-20.36,41.88-12.91,81.1-9.68,98.09,2.72,14.28,9.56,48.08,36.14,78.09,47.4,53.52,119,51.48,130.36,51M625.27,988.22c-34.55-27-46.46-65.42-49.69-77.44-3.48-12.95-13.9-54.16,6.45-97.45,30.12-64.07,101.4-76.87,112.94-78.73,36.47-5.87,66.44,2.68,81.95,8.39-66.73-47.76-150.39-55.63-215.15-20-9,5-65.59,37.22-85.19,105.84-21.17,74.13,8.79,162.66,80,206.52,74.82,46.06,176.2,31.15,238.36-37.86-58.74,28.75-125,25.76-169.69-9.22" transform="translate(-135.63 -155)"/><path class="cls-1" d="M841.57,277.2s2,1,5.31-.86,13.48-.72,12.48,9.32S847,295,847,295s-3.58.43-6-1.43-5.74-3.87-9.75-2-12.48,3.59-15.35,1.58-8.75-9.32-6-16.35,9-9.61,13.34-8.32,10.61,6.46,14,7.31a17,17,0,0,1,4.3,1.44" transform="translate(-135.63 -155)"/><path class="cls-1" d="M871.12,327.86s3.76,2.26,1.5,4.63-6.45,2.84-10.65,6.37-13.44,9.87-21,10.08-18.18-4-20.76-8.49c-1.66-2.9-5.48-8-9.68-8.5s-8.6-1.83-13.55,1-6.78.54-7,.54-2.47-2.59,1-6.78,11.83-10.22,17-11.08c3.29-.55,15.59-4.3,24.85,1.4,3.88,2.39,5.55,8,9.35,10.22,5.49,3.22,9.79,4.3,17.75,3.44s8.39-3.55,11.19-2.8" transform="translate(-135.63 -155)"/><path class="cls-1" d="M841,348.94c-7.53.22-17.32-3.76-20.76-8.49-2-2.7-5.48-8-9.68-8.5" transform="translate(-135.63 -155)"/><path class="cls-1" d="M795.68,366.55s7.25,8.92,9.47,9.61c3.94,1.22,14.05-1.43,15.49-2.15s-3.45-16.64-4.45-16.78-4-2.73-13.2,1.57c-3.72-.86-6-6.73-6-6.73s-13.77-4.88-17.92,4.87,3.29,12.56,7.19,12.2h.23c5.78,1.07,7.77-3.6,9.21-2.6" transform="translate(-135.63 -155)"/><path class="cls-1" d="M644.53,203.92c-254,0-460,205.94-460,460s205.94,460,460,460,460-205.94,460-460-205.94-460-460-460m0,15.49a447.26,447.26,0,0,1,89.59,9A441.88,441.88,0,0,1,893,295.31,445.83,445.83,0,0,1,1054.1,490.89,442.38,442.38,0,0,1,1080,574.31a448.51,448.51,0,0,1,0,179.19A444,444,0,0,1,958.83,978.21a445.06,445.06,0,0,1-141.29,95.27,442.38,442.38,0,0,1-83.42,25.89,448.51,448.51,0,0,1-179.19,0A444.29,444.29,0,0,1,209.06,753.5a449,449,0,0,1,0-179.19,441.88,441.88,0,0,1,66.87-158.92,443.59,443.59,0,0,1,368.6-196" transform="translate(-135.63 -155)"/><path class="cls-2" d="M644.53,159c-278.85,0-504.9,226.06-504.9,504.91s226.05,504.9,504.9,504.9,504.9-226.06,504.9-504.9S923.37,159,644.53,159m0,17a491.35,491.35,0,0,1,98.34,9.91,485.11,485.11,0,0,1,174.43,73.4A489.37,489.37,0,0,1,1094.09,474a485.49,485.49,0,0,1,28.42,91.56,492.45,492.45,0,0,1,0,196.69,485.11,485.11,0,0,1-73.4,174.43,489.37,489.37,0,0,1-214.68,176.79,485.27,485.27,0,0,1-91.56,28.42,492.45,492.45,0,0,1-196.69,0,485.11,485.11,0,0,1-174.43-73.4A489.37,489.37,0,0,1,195,853.81a485.49,485.49,0,0,1-28.42-91.56,492.93,492.93,0,0,1,0-196.69,485.11,485.11,0,0,1,73.4-174.43A489.37,489.37,0,0,1,454.62,214.34a485.49,485.49,0,0,1,91.56-28.42A491.38,491.38,0,0,1,644.53,176" transform="translate(-135.63 -155)"/><path class="cls-1" d="M1007.4,432.41s-12.59-5-17.1,3.12,8,13.66,8,13.66,9.89,5.06,13.66-.64,4.51-13.23-4.52-16.14" transform="translate(-135.63 -155)"/><path class="cls-1" d="M994.77,595.05s-12.58-4.95-17.1,3.12,8,13.66,8,13.66,9.9,5,13.66-.65,4.52-13.23-4.52-16.13" transform="translate(-135.63 -155)"/><path class="cls-1" d="M988,398.1s-27.1,4.59-43.31,20.22c-5.45,6.46,2.29,5.45,2.29,5.45s10.48-1.72,16.21-4.73,13.42-8.12,19.36-10.62c1.07-.44,13.63-3.51,13.63-6.73s-6.15-4-8.18-3.59" transform="translate(-135.63 -155)"/><path class="cls-1" d="M935.94,384.91s4.86,0,6.81-2.73l4.24,2.73s-2.59,9.6-16.93,9.75c-8,.08-13.15.1-16.31.09a15.51,15.51,0,0,1-7.24-1.84c-3.31-1.77-8.87-4.17-13.88-3.58,0,0-18.71,2.75-20.76,1.89a13.11,13.11,0,0,1-6.35-5.92c-1.72-3.23-6.67-4.3-8.49-6.24s-5.81-5.91-4.41-10,2.47-2.26,2.47-2.26,6.35,6.24,26.78,12.69,24.42.43,27.54.11,7.1,1.72,11.08,2.9,5.63,2.33,15.45,2.41" transform="translate(-135.63 -155)"/><path class="cls-1" d="M1088,639.51c1,.9,2.51,3.45,1.93,10.72,0,0-25.53-12.05-40.58-53.5-3.31-4-2,8-2,8s.28,16.07-11.62,14.49l-9-12.73a55.25,55.25,0,0,0-4.32-5.33l-15-16.36s-38.46-27.71-50.62-114.59c0,0,.21-3.73-3.44-3.87s-26.14-5.34-31.63-26.43-2.15-17.32-2.15-17.32,5.92,1.51,16.35,15,22.59,19.57,27,19.68,18.28-.75,20.11,7.1c.43,8.6,1.73,23.23,2.58,28.18s7.53,32.91,12.27,42.6,12.26,24.09,15.91,30.11a210.44,210.44,0,0,0,13.56,18.5c.86,1.58,2.65,2.44,3,1.44s-.72-9.47,1.08-11.55,6.3-4.44,13.33-.43,13.88,5.27,20,21.52,10.11,29.14,15.49,35.49c2.69,3.17,4.41,5.38,5.46,6.79a14.72,14.72,0,0,0,2.36,2.5" transform="translate(-135.63 -155)"/><path class="cls-1" d="M481,536.32s-1.83-8.61-15.6-8.5-14.3,3.55-20.22,3.66-10-1.08-10.43-.32-.54,5.91,3.87,9.35,14.41,2.8,18.5-.86,17.53-7.1,23.88-3.33" transform="translate(-135.63 -155)"/><path class="cls-1" d="M497.8,619.1s-9.89,4.31-12,23.24c-.36,1.27-1.87,1.81-3.43-3s-3-15.65-11.77-13.55c-5.55.43-6.57,3.39-9.15,3.6s-10.7-2.2-15.65-1.4-8.23,2.37-8.6,8.45-1.13,8.12-.27,11.78,2.63,12.69,1,15.06-4.15,4.41-5.71-2.32-2.18-23-.53-31.55c1-6.1,6.16-9.25,11.18-10s36.5-1.72,38.15-1.86,5.24-.57,6.31-1.87,4.73-3.51,6.46-2.57,4.94,2.14,4.08,5.94" transform="translate(-135.63 -155)"/><path class="cls-1" d="M486.76,717.34v1.26a2.45,2.45,0,0,0,2.61,2.45c7.34-.45,28.1-1.67,35.25-1.55,8.75.14,23.09,2.29,25.53,1.72s3.59-2.73,1.29-4.31-7.17-6.45-13.05-6.45-15.63-.14-21.22,1c-4.4.91-20.69,2.18-27.44,2.69a3.19,3.19,0,0,0-3,3.19" transform="translate(-135.63 -155)"/><path class="cls-1" d="M525.3,725.63s4.63-.32,3.44,3.65-1,3.55-2.25,3.45-6.17-5.56-1.19-7.1" transform="translate(-135.63 -155)"/><path class="cls-1" d="M526.63,735.27s-2.44.79-1.94,2.87,1.44,3,2.8,2.51,1.39-.72,1.45-2.22,0-3.52-2.31-3.16" transform="translate(-135.63 -155)"/><path class="cls-1" d="M414.62,834.66c-6.81-.38-9.46,3.16-10.75,9.47s3.15,10,5.37,10,9.54,2.43,11.55-3.73,1.58-15.35-6.17-15.78" transform="translate(-135.63 -155)"/><path class="cls-1" d="M337.93,835.66s-4.41-16.88,6.46-16.56,17.42,2.8,18.17,6.56.22,11.4-5.48,12.37c-5.49,2.69-11.73-5.48-19.15-2.37" transform="translate(-135.63 -155)"/><path class="cls-1" d="M452.19,860.33a1.47,1.47,0,0,0-1.43.53c-1.38,1.77-4.39,6.84-.05,13.15,3.91,5.68,3.07,10.43,5.79,15,1.93,3.24,5.56,2.18,8.14-.69s2.13-7.41-1.45-13.29c-3.47-5.69-2.73-13.06-11-14.7" transform="translate(-135.63 -155)"/><path class="cls-1" d="M214.39,649.87a.25.25,0,0,1,.28-.37,168.67,168.67,0,0,0,33.55,4.38c18.4.44,30.84,7.75,29.91,9.58-.43,4.73-2.53,4-4.68,3.76s-12.71-4.59-23.9-4.73c-11-.14-28.82-1.12-35.16-12.62" transform="translate(-135.63 -155)"/><path class="cls-1" d="M430.64,585.55l-3.54-29.69s0-3.3-2.73-3-6.73-.43-5.59,7.6.61,11.33-.2,14.2.49,3.44.92,7.74,2.15,10.61-10.33,32.12c0,0-2.61,4.06,3.27,1.51s12.8-7.6,15.09-11.61,6.45-7.18,8.39-6.17,14.2,5.74,20.29,9.9,8.25,6.45,9.18,5.44,10.18-10.32,13.55-11.76,5.31-1.86,8.18-.93,7.82,7.6,9.25,7.17,5.38-2.94,5.31-4-3.16-2.3-5.31-4.38-9-13.76-10.43-24.09-2.26-16.67-1.62-21.51.54-5.81-1.18-6-4.09-2.08-5.24,2.69a67.05,67.05,0,0,0-2.18,21.52c.75,7.63-1.72,18.92-4.2,22.15s-2.69,3.47-3.52,3.28-3.47-2.79-3.66-10.54-2.52-18.34-9.2-18.18c0,0,.35,11.89-1,15.65s.21,8.07-1.72,9.47a6.89,6.89,0,0,1-9.2-1.35c-3.28-3.54-5.27-5.21-8.76-5.48s-3.41-.77-3.78-1.7" transform="translate(-135.63 -155)"/><path class="cls-1" d="M531.44,548.69s.53-5.7,0-7.32-4.52-3.33-7-1.29-9.57,6.24-10.32,6.89-1.83,4.94,2.69,7.31,8,2.8,6.56,4.63,1.07,4.41-6.45,4.62S508.74,574,508.74,574s.54,17.86-1.51,26.89-1.83,14.31-7.2,20c0,0,6.52,6.28,6.45,14.09s-7.74,40-1.29,48,7.24-10.28,7.1-15.35-2.58-12.18,1-14.4,5-3.66,14.06-3.16,22.09-.21,24.88-1.93,3.3-4.24,1.22-6.53-11.19-10.18-13.19-14-3-7-1.37-8.61,11-5.73,8.46-12.41S536.17,588.56,535,583.43s-.72-9.36,1.72-10.79,8.68-4.73,9-5.52l-.93-3.45s-14.13,5.09-13.41-15" transform="translate(-135.63 -155)"/><path class="cls-1" d="M527.92,638.9s9.68,2.58,9.47-2.37-5-3-7-2.29-5.24,2.51-2.44,4.66" transform="translate(-135.63 -155)"/><path class="cls-1" d="M494.87,690.89a2.3,2.3,0,0,1,1.33,2.51c-.6,3.43-2.07,11.09-3.49,12-1.82,1.18-3.3.91-3.69,0s-.72-10.44-.34-12c.33-1.44,2-4.25,6.19-2.47" transform="translate(-135.63 -155)"/><path class="cls-1" d="M506.12,702.72s1.36-.89,1.44-4.46,1.43-7.65,4.16-7.94,9.75-2.66,7,3.15-.64,7.74-4,10.25-6,4.23-8.61-1" transform="translate(-135.63 -155)"/><path class="cls-1" d="M590.49,672.92s.86,6-6.24,6.35-13,.43-13-3.17,2.91-4.36,5.49-4.57,14.08-1.3,13.77,1.39" transform="translate(-135.63 -155)"/><path class="cls-1" d="M575.11,686.69s-.87,1.07-.76,4.95-.86,7.86-2.47,9.2-3.66.45-4.41-3-2.05-10.74.65-12.14,6.77-2.9,7,1" transform="translate(-135.63 -155)"/><path class="cls-1" d="M584.68,688.19a18.3,18.3,0,0,1-1.26,4.72c-.11.26-.23.53-.36.77-.51,1,1.6,3.36,3.4,5.08a1.43,1.43,0,0,0,2.36-.59,4.72,4.72,0,0,1,1-1.8c1.83-2,10.33-8.17,10.33-10.65s-1.08-4.51-3.87-4-7-.43-8.83,1.51c-1.54,1.63-2.47,2.66-2.79,4.94" transform="translate(-135.63 -155)"/><path class="cls-1" d="M736.81,491.89s-11.33-4.73-7.67-9.82,8.46,7.1,7.67,9.82" transform="translate(-135.63 -155)"/><path class="cls-1" d="M750.43,476.55s2.15,5.2,4.2,4.59,2.43-3.23.21-4.88-3.72-4.51-5.88-4.94-2.54.21-2.61,1.43,2.47,3.73,4.08,3.8" transform="translate(-135.63 -155)"/><path class="cls-1" d="M789.08,459.7s-2.65-.36-7.46-7.6-7.23-2.08-6.81-1.44,4.24,3.87,5.59,8.25,3.66,14.55,13.63,15.85c0,0,4.16-.43,2.87-2.44s-3.8-4.23-3.09-5.16,2-1.22,3,.42,5.73,6.1,6.59,6,1.94-.5.93-3.44S801,459.84,801.35,459s1.07-.79,1.5-.07,11.62,10.46,11.33,17.28-3.22,13.84-1,15.13,2.94,1.44,4.16,1.44,6.67-.94,7.1.43,2.22,1.72.57,8.53-3.09,5.74-5.23,5.16-10.33-3.22-12.7-2.58-4.66,2.73-4.3,4.73,1.65,9.11,8.61,9.47,12.62,1.29,15.2-6.88c0,0,5.16,4.66,9.32-.65,0,0,6.17,15.78-3.59,15.06-8.89-2.8-14.55-3.09-15.56-1.65s-5.09,6.88,6.89,11.54c10.82,4.52,9.61,4.45,8.46,5.45s-6,4-4.09,5.52,10,6.1,9.81,8.82-2.57,7.54,3.1,10.4c0,0,7.17,13,14.48,9.68S860,563.6,860,563.6s-4.44,1.36-6.17-1.29c-2.5-2.29-6.66-6.95-7.6-17.56-1.86-6-10.83-6-10.83-6s4.52-1.72,2.45-7.6c0,0,4.44,4.88,8.67,1.08,0,0,2.35.69,1.22,8.1s5.88,11.4,8,10.4,4.16-2.08,4.23-.51.79,12.9.5,13.56,8.25,4.87,10.9,2.22,5-5.95,3.38-13.12a18.22,18.22,0,0,0-7.89-11c-.29,0-3.37,3.23-3.45,2.66s-.57-17.43-9.17-19.86c-4.31,1.93-5.46.07-5.46.07a3.68,3.68,0,0,1,.08-5.09c.79-4.38.64-7.75-1.72-10.62s-5.81-3.58-7.75-5.3-4.44-6.53-5-10.83-2.8-4.37-5.09-4.73a4.83,4.83,0,0,1-3.94-4.31c0-1.72-3.52-13-6.89-16.78s-15.92-19.79-17-20.43-2.3-.65-2.44.79.86,5.23,0,6-3.3.72-7.6-5.09c-3.8-3.59-6.6-4-7-2.8s-.14,1.94,2.44,5.74,4.23,6.74,2.15,8.39" transform="translate(-135.63 -155)"/><path class="cls-1" d="M880.72,572.21s-5.16,15.49-4.44,19.93c.32,2-3.37-2.29-7.53-2.15-7.28.25-10.92-5.06-10-8.89,0,0,18.29-18.21,21.94-8.89" transform="translate(-135.63 -155)"/><path class="cls-1" d="M800.56,487.16s10.32,1,8.92,8.5c-4.4,4.73-15.81,3.44-21.29-2.58s-12.05-18.83-15.82-23.88-8.6-10.22-7.09-12.91,4.19-3.87,6,0,8.07,9.58,10.32,13.23,9.26,17,18.94,17.64" transform="translate(-135.63 -155)"/><path class="cls-1" d="M220.51,753.92s8.28-1.62,8.5-14.31c0-2.69,2.25-5.49,5.05-4.84s11.83,4.09,13.56,11c0,7.21-2.37,6.45-2.37,8.18s2.9,8,6.45,13.23,5.81,9.46,3.34,11.61-9.15,5.06-12,2.59-3.66-7.64-5.7-9.36-14.74-2.37-19.26-3.66-6.23-2.48-5.81-5.92.87-7.85,3.13-8.28,3.53.4,5.16-.21" transform="translate(-135.63 -155)"/><path class="cls-1" d="M210.94,688.73s40,.65,50.95,11.19,10.75,12.26,11.4,17.64,2.89,20.22,4.88,23.88,5.63,16.11,12.11,22.88c4.88,5.09,1.72,12.08,3,14.77s23.45,29.36,12.8,41.62c0,0-.64.59.59,1.35s5.17,1.24,7.21,4.41a80.25,80.25,0,0,1,8.77,19.36c3.17,10,7.37,13.82,12.9,14.63s4.74.64,4.9,2.09-.54,10.17,1.61,13.18,2.85,9.27,24.37,21.18,37.86,36.57,39.29,38.28,16.49,25.53,19.94,31.84,7.31,14.49,11,15.78,17.5-.29,19.07,1.44-.14,3.87-1.86,4.73-17.78,11.47-39,8.6c0,0-5.16-.57-5-4s-10.61-27.68-15.77-36.43-18.22-26.39-22.81-31S349.37,902.21,340.47,896s-14.48-7.31-15.2-12.9,3.3-6.6,3.3-8.75.65-5.52-6-8.54-19.22-9.32-20.87-14-.79-10.11-1.07-11.76-2.66-3.87-4.23-3.51-2.8-.65-4.31,3.87.15,5.38-2.36,8.6-3.3,4.09-6,2.37-11.9-9.32-15.2-20.36.36-19.22,4.95-22,9.75-2.44,12.91-.14c0,0,4.23,2.86,4.51-1.15,0,0,2.66-9.47-1.86-15.42s-17.5-14.34-16-21.87,4.66-7.53,3.37-9.47-10.11-5.94-9.82-9.6,2.36-14.7.28-17.43-4.59-1.79-6.67-3.37-.93-4.52-.28-5.38,4-12.26-6.39-15.77-25.74-3.3-31.69-5-9.38-1.29-10.86-5.88-2.39-9,0-9.9" transform="translate(-135.63 -155)"/><path class="cls-1" d="M307.6,912s-4.73,1.73-4.3,3.45,3.86,1.48,6.56,4.52,13.66,25.92,18.71,24.3,7.64-5.8,7.42-8.82-4.94-10.65-9.57-15.06-10-11-18.82-8.39" transform="translate(-135.63 -155)"/><path class="cls-1" d="M397.63,892.39a14.71,14.71,0,0,0-9.86-3.79c-1.67,0-3.37-.24-3.91-1-1.18-1.62-2.12-8.34,1.86-12.73a13.64,13.64,0,0,1,12.77-4.06c3,.76,7,9.36,8.5,15s9.35,6.13,11,6.13,4.62.86,5.05,4.09,2.26,12.47-4.73,13.66-10.86-.32-13.77-4.84c-2.24-3.49-2-7.93-6.88-12.44" transform="translate(-135.63 -155)"/><path class="cls-1" d="M360.19,991.7s-9.6-5.09-6.8-11.11,5.87-8.54,8.74-8.25,9.47,1.51,12.91,10.33,10.18,7.38,13,7.67,6.31,1.65,6.67,3.87.29,15.71-3.73,15.92-11.69.72-12.84-.43.36-3.51-2.43-7.17S363,993,360.19,991.7" transform="translate(-135.63 -155)"/><path class="cls-1" d="M695.14,609.07s-4.58-17.36,29-19.22c13.62-5,8-35,8.89-42.88s3.3-8.32,5.16-8.32,5.59-.43,4.73,11.9-.86,15.92-.86,15.92S764.27,594,748.35,603c-4.3,2.58-6.74-2.72-6.59-6.88s.28-8.18-2.44-8.61-7.75,2.3-5.17,6.74,9.19,23.93,2.87,29.83c-5.52,5.17-7.78,5.9-10,2.3-1.64-2.73-.21-9.75-1.64-11.33s-4.15-1.89-5.31,2.3a53.47,53.47,0,0,0-2.3,15.77c-.14,8.17-3.46,21.43-9.68,23.66-4.61,1.66-5.88-1.57-5.81-3.29.13-2.87,2.73-6.17,3-7.75s0-5.88-2.1-5-6.58.07-7.51,5.74,2.22,23.09-6.38,34.49c0,0-3,3.94-5.1,1.22s-.5-20.15-2.43-20.94-3.8,1.36-5.24,3.37-14.05,18.28-18.86,19.43-7.38.5-7-3.51,3.3-9.47,7.38-11.4,15.64-9.83,16.42-13.41,1-5.09-2.22-4.52-3.51,3.73-6.45,3.52-4-1.8-4.38-3.88.43-5.59,2.15-6.09,11-10.47,16.42-8.11c0,0,2.3.72,1.94-.5s-2.44-13.55,5.09-16.28,15.85,2.8,23.52-6.74c1.69-.93,1.54-2.79.61-3.12s-15,2.87-16-1" transform="translate(-135.63 -155)"/><path class="cls-1" d="M403.72,798.66s4.31-4-9.46-20.65c-4.59-10-6.74-19.07-5.6-25.67s5.46-23.61,10.48-31,8.31-15.16,9.17-18.89,11.19-40.44-1.86-48.19c0,0-20.51,64-24.67,81-2.15,3.48-3.3,1.91-3.87-1.11s-4.74-14.19,0-27.1,16.64-34.13,19.79-42.88,6.45-23.66,4.3-26.11-3.73-.8-6.17,1.54-9.18,11.66-12.76,20.41-10.33,29.54-11.76,31.41-5.45-.43-5.59-8.61-1-9.75,3.87-16.06,32.48-38.14,31.55-84.54c0,0-6.25-2.08-8.19,1.57s-11.46,25.92-16.73,42.06c-6.45,16.46-8,21-8.82,20.76s-3.23,2.69-1.83-8.82,3.34-22.81,8.61-35.71,10.31-20.33,14.89-28.83,15.44-32,13.72-43-5-13.88-8.28-14.42-4.73,5.28-4.3,6.35.52,8.61-1.14,13.88-4.78,20.65-6.83,21.4-4.73-.43-4.62-2,8.07-49,10.44-56.68,4.19-10.54,2.36-12.69-5.81-6-6.67-5.06a48.89,48.89,0,0,0-7.63,13.67c-2.26,6.66-7.64,22.69-8.4,32.58s.49,24.58-1.07,28.13c0,0,.41,4.36-1.51,4.64-1.48.23-1.79-5-1.79-5s-2.72-11.47-2.44-20.07.22-13.84-3.51-12.19-7.39,9.25-8.53,14.91-.93,29.69.85,35.5,7.32,16.85,8.61,21.58,3.52,17.67.93,22.21-3.15,3.82-3.8,3-4.37-5.81-3.37-12.33,1.51-16.64-1.5-21.23-4.81-8-7.53-6.52-2.37,3.15-2.37,3.15a3,3,0,0,1,0,3.44c-1.27,1.8-6.36,10.33-4.5,22.67s.91,16.7-.4,17.49-5.83.07-6.77.58-1.07,13.12.29,18.5,4.16,24.16,12.76,31.76,10.4,13,11.26,14.27,10.11,15.71,10.61,24.81c0,0,5.53,20.66,3.3,23.74S354.39,719,352.74,714.91c0,0-7.82-20.58-17.07-25.17,0,0-4.95.64-1.65,13.69s4.74,33.42,24.88,47.4c10.69,7.75,14.85,7.68,19.22,12.41s11.69,23,14,26.6,7.45,11.19,11.61,8.82" transform="translate(-135.63 -155)"/><path class="cls-1" d="M363.92,572c-1.91,0-2.5,5.88-1.21,7.32s2.72,1.22,3.15-1.22.65-4.81,0-5.31-.57-.79-1.94-.79" transform="translate(-135.63 -155)"/><path class="cls-1" d="M338.47,631.87l16.2,40.88s.86-13.92,0-16.36-16.2-24.52-16.2-24.52" transform="translate(-135.63 -155)"/><path class="cls-1" d="M341.91,753.49s13.12,15.92,16.78,24.74,14.41,40.66,29.69,42.59,23.15-2.76,25.85.68a51.17,51.17,0,0,0,3.83,4.48c5,4.95,13.17,9.83,15.28,8.65,4.16-2.32.59-4-2.85-9.56s-8.5-14.2-6.94-18.18,5.81-11.72,2.1-21.51-11.78-32.65-11.78-40.71-3.05-21.5-6.25-20.35c-4.57,1.63-4,9.27-5,19.92-.52,5.46.53,15.06,1.82,20.76s7.53,25.6,8.07,29,1.72,8-2.37,8.92-10.54,3.66-16.45,1.19-16.14-13-21.19-24.74S357,748.54,341.91,753.49" transform="translate(-135.63 -155)"/><path class="cls-1" d="M962.37,359.82a12.79,12.79,0,0,1,4.85,3.8,2.34,2.34,0,0,1-.15,3,2.41,2.41,0,0,1-1.73,1,2.55,2.55,0,0,1-1.79-.52,2.79,2.79,0,0,1-1.07-1.63,2.42,2.42,0,0,1,.44-2,5.45,5.45,0,0,0-4.07-1.67c-1.88.05-2.66.84-2.35,2.39a6.23,6.23,0,0,0,2.14,3.5,18,18,0,0,0,1.47,1.21,6,6,0,0,1,2.47,4.12,5.21,5.21,0,0,1-2.55,5.09c-1.95,1.31-4.35,1.34-7.21.11q-2.9-1.23-7.28-6.45a9.48,9.48,0,0,0-5.41-3.42,11.06,11.06,0,0,0-4.18.1c2.5-1.48,4.71-2.07,6.63-1.79a11.37,11.37,0,0,1,4.36,2.34q.63.57,2,1.65,2.58,2,3.92,1.39c.8-.34.9-1.13.29-2.36a8,8,0,0,0-1.44-1.73,10.69,10.69,0,0,1-3.24-4.21q-.6-1.85,1.24-3.91c1.15-1.43,3.06-2.09,5.7-2a17.84,17.84,0,0,1,6.92,1.9" transform="translate(-135.63 -155)"/><path class="cls-1" d="M1035.9,726.38s-18.07,1.72,0,28.11c2,8.32-4,4.45-4,4.45s-21.16-19.94-22.52-29.62,5-13.05,5.31-18.79.43-6.45-1.79-10.39-.72-9-.72-9,18.29,2.37,23.73,35.28" transform="translate(-135.63 -155)"/><path class="cls-1" d="M1050.1,748.9s11.76-3.26,3-23.43c-3-11,9-10.13,9-10.13s13.38,7.6,9.34,14.62,4.84,24.67.76,27.25-12,9.9-22.15-8.31" transform="translate(-135.63 -155)"/><path class="cls-1" d="M988.72,704.15s-7,5.17-1.58,23.38c1.58,11.9-8.75,10-11.61,8.75s-11-11.19-3.88-25.25c2.44-6.88-4.59-11.18-4.3-12.9s5.16-9,8.18-7,13.91,7.6,13.19,13" transform="translate(-135.63 -155)"/><path class="cls-1" d="M997.18,744.45s-7.56,17.43-8.43,27.54,2.19,17.64,17,38.29c11.41,14.63,12.62,11.35,13.56,9.89,5.38-8.31-15-14.34-18.86-40.3-1.82-12.1,4-23.37-3.3-35.42" transform="translate(-135.63 -155)"/><path class="cls-1" d="M893.06,910.64c-7,.19-14.73,5.27-8.82,17.74s12.69,10.87,16.46,7.1,11.83-25.38-7.64-24.84" transform="translate(-135.63 -155)"/><path class="cls-1" d="M921.74,1011.13l13.48-10s-2.83-3.69.33-12,26.78-41.2,13-58.41c0,0-10.18,5-10.75,5.09s3.51-12.26,2.72-26.75c-1.57-10.32,6.17-24.67,6.17-24.67S961,890.88,963.91,888s11.62-6.6,11.19-28.11c1.29-4.3,3.58-2.44,5.59-2s16.63-.28,16.63-11.75c0-6.89-.43.28-4.87-19.66s-21.08-10.9-22.81-11.32-.14-10.9,3-19.36,1.58-18.22,0-17.93a17.07,17.07,0,0,0-13.12,10.9c-3.65,9.17-6.52,14.34-2.22,30.69s9.18,38.43,5.45,42.3-7.46.87-9.75-1.57-4-12.77-7-15.63-6.17-2.15-7.89,0-1.72,5.73-2.15,13.76-2.29,27.4-3.87,28.83-19.51,3.16-20.22,14.34,6,19.36,13.48,24c4,1.87-3,6.72-5.31,12.77a59.23,59.23,0,0,0-3.44,17.49s16.21,3,12.34,16.78-11.41,18.35-7.18,38.65" transform="translate(-135.63 -155)"/><path class="cls-1" d="M479.81,675.27s4,0,6.41-7.75a5.85,5.85,0,0,1,3.9-3.92c5.25-1.5,7.27,6.17,4.75,10.5-3,5.17-6.26,6.46-6.36,8.82s-6.34-4.22-7-3.5-1.51,23.94-5.38,24.16-3.23,2.57-2.15,6.88,17.86,40.66-4.09,61.1c0,15.92.21,23.23,1.51,23.23s2.79,1.51,4.3-3.87,15.63-56.58,30.4-59.59-1.57,31.86-13,48.2-26.88,34-23.23,60.44c0,0,.42.53-.54,1.66s-4,3.55-4.57,2.37-1.08-8.87-2.85-9.79-3.06-1-4.41,1.18-8.78,21.57-15.67,23.36-12.33,1.08-13.27-.64-3.29-2.94,1.87-7.46c0,0,6.31-1.51,14.27-21.94s14.77-16.42,15.56-18.29,2.8-4.76-4.52-11.3-12.55-10.36-16.42-18S424.84,754.8,426.67,738c0,0,26.46,13.54,26.57,45.91,0,0,2.33,8.08,7.27,7.43s3.16-12.91,2.16-15.64-5.74-14.91-10.33-21.36-21.94-26.6-23.95-34.14-5.81-26.53,1.15-29.25,14.56,17.06,16.7,21.22,16.72,43.24,18,43.89a2,2,0,0,0,3.38-.78c.6-1.83,4.53-10.28,1.15-17.28s-10.58-15.93-10.58-25.93,0-14.23,1.61-14.22,3.55.77,6.78,2.39,5.27.75,5.38-.76a50.32,50.32,0,0,0-.54-14.58c-1.4-8.65-2.83-19.41-.65-25.22,1.45-3.87,2.63-6.34,7.47-6.13s12.93-2.37,16.19-.32c3.34,1.75,5.38,5.27,2.42,6S484,658.56,481,662.6s-1.93,10.88-1.23,12.67" transform="translate(-135.63 -155)"/><path class="cls-1" d="M542.89,674.67c-.24.42-.49.83-.75,1.22-1,1.5-3.17,6-3.5,16.94-.43,14.19-7.1,12.68-7.63,10.42s-1.83-24.09,0-26.56,10.32-8,11.61-11.14,15.28-12.2,20.33-11,10.22,3.33,5.06,6.13-6.24,2.69-5.38,5.92,3.86,10.86,3.86,10.86-12.79-10.76-18.06-7.64c-3.68,2.18-5,4-5.54,4.87" transform="translate(-135.63 -155)"/><path class="cls-1" d="M551.8,618.53s3.09,2.22,4.73.79,4.45-4.16.94-9.47-11.91-14.05-11.05-18.57,2.87-4.73,5-4.09,2.8.36,5.23,3.95,5.67,13.69,9.76,15.42,11.69,1.22,14.91-.29c0,0,14.06-5,20.94,17.28,1.15,2.15,3.16-1.75,4.66-2.29s10.13,7.32,10.27,8.82-1.67,4.42-4,5.22-13.47,2.56-15.08,4.84.32,2.8,2.93,3.26a24.94,24.94,0,0,0,14.36-2.61c6.29-3,9-3,14.2-3s20.41.73,14,6.37-7.09,5.38-6.3,7.24,2,4.7,6.09,5.53,9.14.5,7.75,4.91-1.4,5.16-8,4.73-15.23-1.4-16,.11,3.45,2.54,3.12,4.48-.18,3.55-3,4-8.28,2.55-11.55-2.08-14.05-24.23-18.28-24.09-3.3,3.16-1.79,5.34,6.23,8.57,5.09,10.86-5.17,4-7.32,3.66-11-9.68-11.47-12.91.36-19.46-4.8-24.5-4.88-2.31-5.24-2.1-2.37,6-1.08,9.54,1,4.8-.36,6.31-4.87-.65-7.17-3.23-7.46-9-6.31-11.47,2.44-4.16.51-5.16-12.41.35-13.34-1.44.57-3.3,2.51-3.58a24.38,24.38,0,0,0,5.16-1.87" transform="translate(-135.63 -155)"/><path class="cls-1" d="M847.78,846.85s-11.3-1.4-11.08,4.52,3.44,10.21,9.35,10.75,10.12-2.9,10.76-4.62.22-10.22-9-10.65" transform="translate(-135.63 -155)"/><path class="cls-1" d="M873.05,863.2s-27.1,5.6-34.85,17.21-7.31,9.88-7.1,14.09,2.16,13,7.1,11.73,10.24-8.61,13.83-9.47,7.25,1.07,10.27.86,10.11-12.77,16.35-15.85,28.39-24.38,30.76-30.19,3.66-31.83,0-38.07-10.33-12-14.42-8.82-13.33,21.65-9,42c1,7.19-2.2,6.54-3.06,4.44s-.17-13.12-5.11-22.08-13.63-24-17.64-23.81-8.61-.29-9.83,6-3.37,13.12,3.44,23.3S870.26,855,872,858.61s1.07,4.59,1.07,4.59" transform="translate(-135.63 -155)"/><path class="cls-1" d="M883.81,776.72H852.94s-.54,13.34,13.66,11.94,15.38-4.3,17.21-11.94" transform="translate(-135.63 -155)"/><path class="cls-1" d="M883.81,776.72H852.94s-.54,13.34,13.66,11.94S882,784.36,883.81,776.72Z" transform="translate(-135.63 -155)"/><path class="cls-1" d="M841.92,768.76h56.34A2.09,2.09,0,0,1,900,772l0,.07c-1.5,2-9.14,12.79-4.41,14.63,5.08,0,26.75-2.05,30.09,2.61,3.78,5.3,1.43,18.79.68,22.66s-1.38,5-3,5.06c-1.39.06-4.73-2.15-4.62-5.92s1.4-9.79-1.4-12.48-12.48-5.59-23.12-3.87S862.08,800,851.86,800s-28.82-.21-31.4-1.61,1-7,4.62-7.31,16.46,1,17.64-.87,2.37-3.43.54-5.91c-1.19-1.6-5.12-5.86-6-9.81a4.73,4.73,0,0,1,4.66-5.68" transform="translate(-135.63 -155)"/><path class="cls-1" d="M859,737.35s8.89,7.68,7.67,10.47-4.09,1.36-4.09,1.36-8-6.16-3.58-11.83" transform="translate(-135.63 -155)"/><path class="cls-1" d="M859,737.35s8.89,7.68,7.67,10.47-4.09,1.36-4.09,1.36S854.55,743,859,737.35Z" transform="translate(-135.63 -155)"/><path class="cls-1" d="M850.54,749.26s-2-5.1-4.52-4.52-2.72,2.29-.65,5.88,7.32,9.11,6.46,10.68-.14,2.51-3.44,2-4.95-6.38-8.47-9.61-10.11-5.22-11.61-10.25-2.23-9.47,2.43-12.91,10.83-8.6,16.57-13.27,9.83,2.08,10.83,3.8,26.1,31.48,26.39,33.85.86,5.74-4.73,6.74-8.68,2.58-12.34,1.08-13.86-9.23-16.92-13.48" transform="translate(-135.63 -155)"/><path class="cls-1" d="M772.3,707.16s2.59,3.16,5.17,1.44,3.15-7.46,6.59-5.74,8.9,9,7.18,12.8-4.88.68-6.89,5.27-6.55,6.79-9.59,7.41-9.34-2.25-12.21-15.73-16.35-7.2-20.94-7.9-25.53-10.45-29.83-18.77-6.16-16.93-3.66-18.07,13.13-3,26.61,8.27,14.47,9,14.55,5.52-6.2-15.8-11.52-20.68-5-10.9,0-18.93.12-10.9,3.85-15.49,9.77-5.45,12.49,0,9,8,10.17,10.9S762.55,655,763.7,661s2.29,7.17,5.45,4.88,4-15.2,8-15.63,12.91,3.87,12.91,10.18-2.87,22-7.75,30.35-12.83,11.09-10,16.4" transform="translate(-135.63 -155)"/><path class="cls-1" d="M862.08,650.23S858.63,635,858.64,622s-3.44-18.35-5-18.35-5.45-1.58-5.59,7.31-5.31,17.35,3,48.9c4.3,18.65.86,26.83,1.72,33.28s3.16,13.26,6.52,12.47,5.6-11.18,7.82-15.41,6.6-9.68,9-7.17,5.38,15.2,8.11,17.78,5.3,2.87,6.09,1.65,2.73-22.23-1.5-30.76-4.23-12.84-8.25-11.48-5.09,8.43-10.57,10.47,2.25-22.48,2.25-22.48S875.14,630,877,629s1.86-.14,3.72,2.87,8.9,6.88,10,5.3,1.72,4,1.72,6.75,3.73,27.24,6.31,33,11,40.77,13.91,51.44-.15,13,10,18.41c4.8.86,3.72-1.8,3.72-1.8A217.66,217.66,0,0,1,923,722.44c-.93-10.76-.64-35.43,5.6-50.2s28.11-70,1.43-102.69c0,0-2.12-1.64-2.34,2.07a6.4,6.4,0,0,0,.63,3.52c.88,1.38,3,4.93,3,6.3s2.8,5.18,2.3,12-.11,30.8-4.19,40.69S917.9,668,917.05,668.62s-1.4-.25-1.4-1.43-1-18.15,0-24.55,3.17-24.2,4.08-28,6.08-44.42,4.79-52.45.59-17.3-2.21-18.21-8.6.26-10.43-1.19-1.77-2.15-1.07-2.58,6.07-2.85,6.77-4.62,5.92-12.38-4.3-18.18-9.09,6.07-8.71,6.67.91,2.1-.28,2.26-7.08-.76-9.59,6.66-6,8.28-8.15,7.8-5.44-2.79-6.61-1.77-1.24,5.91.58,8,3.13,5.49,7.8,4.57,13.07-3.87,13.56-3.92,3.33-.6,3.33,1.56-5.92,7.15-5.92,7.15-4,2.37-2.47,4.14,10.22,4.3,12.48,5.92,3.39,1.66,3.65,3.11,4.75,6.82,3.82,17.14c2.37,6.86-9.35,45.89-9.89,48.8s-1.29,6.34-2.48,6.78-2.58.32-2.36-3.34-1.4-8.28-.43-17.64-.11-20.11-4.09-22.37-11.51-.43-15,3.23-4,2.58-4.95.54-2.36-6.57-3.76-5.17c-.65.65-3.59,9.84-4.13,25-.5,13.93-3.31,27.8-7.6,27.75" transform="translate(-135.63 -155)"/><path class="cls-1" d="M890.91,494.19s3.08,11.54-1.79,12.69-6.53-2.22-7.68-1.07.43,5.23-2.15,7.24-12-1-14.84.64-1.22,6.17.36,9.4,7.88,12.62,11.9,9.68,5.52-8.1,8-8.46,4.8.28,6-1.87,3.16-5,6.24-5.73,7-.5,7.82-4.45-.9-14.2-3.8-17.35c-2.55-2.77-7.89-6-9.25-5.09s-.72,4.37-.72,4.37" transform="translate(-135.63 -155)"/><path class="cls-1" d="M853.48,484.8c2.47,6.12,8.92,12.26,10.75,12.37s3.44-.87,3.23-4.09,1-7,2.58-6.24a5.79,5.79,0,0,0,4.84.43c1.94-.65,3.87-1.61,3.87-5.81s0-8.61,3.23-8.71,7,0,7.42,3.42.09,9.29.86,11.85,2,2.58,2.37,4-4.33-.27-7.21,2.58c-7.92,7.86-12.8,6.35-14.41,8.5s1.94,2.91-2.26,4.52-13.55,4.2-18.5-6.24-1.83-12.58-2.47-14.41-3.12-3.66-5.81-4.41-12.37-12.05-15.71-18.72-12.51-19-13.94-20.4,3.15-4.73,4.15-5,6.46-5,7.75-4.44,1.4,1.25,1.76.82.71-6.71.93-7.24,3.4,2.54,3.4,2.54l8.5,8.11,3.62-6.71L856.92,448s.75,2.9-1.83,4.09-4.63-1.4-5.59-1.51-2.69,1.58-2.76,3.51-5,.79-6.71.9-6.49-1.36-7.78-1-1.79,1.9-1.22,3.51,1.4,5,8.57,11.26,8.32,2.44,8.75.54-.64-5.6.75-7.89,3.91-3.94,6.17-2.05,2.9,4.13,5.16,4.38,5.74-1.61,5.42-4.3.8-2.57-1.45-5.37-13-18.17-13.4-27.64c0,0,12.43,11.3,14.85,14.09s10.7,13.72,10.81,17.16.75,12.37-2.85,16.13-4.52,7.53-13.45,8.39-6.88,2.59-6.88,2.59" transform="translate(-135.63 -155)"/><path class="cls-1" d="M846.31,698.2s-1.22,4.73-6.17,0-3.44-11.19-6-12.05-5.24-1.5-9.08,11-9.64,25.39-13.73,25.18-17.21-54.65-17.64-62.18-5.8-42.38-3.66-46.89,3.45-3.45,5-2.8,6.46,8.6,9,17.21,5.16,29.47,3.22,32.7-1.93,11.18-.21,11.18,1.94,1.51,3-.43,6.88-23.66,9-30.76,5.59-20.87,3.87-23.45-4.09-5.37-8.6-5.27-7.11-3.55-6.68-4.84,6.24-4.92,7.54-6.87,1.43-4.67-.86-5.39-6.89-4.84-7.86-7.21-.1-5.48-1.5-9-1-4.52-1-4.52,3.44-2.58,6.13,0,4.84,6.22,6.77,7.36,2.37-1.77,1.94-3.49S815,567,815.94,564.07s3.3-5,5.88-4,4.62,1.86,7,6.31,4.8,8.39,2.5,14.24-9.21,4.23-9.57,4,1.22,3.55-1.36,5.38a2.83,2.83,0,0,0,.21,5,6.23,6.23,0,0,0,7.64-1.51c3-3.33,4.63-4.3,6.13-3.54s5.27,2.58.86,8.49-6.67,10.87-6,19S826.3,640,825,643.56s-4.58,13.23-5.87,21.29-3,11.84-1.26,13.66,4.26-.21,4.91-1.82,1.08-7.75,5.6-9.68,7.31-2,9.14-1.29,6.66,4.71,6.24,9.88-1,9.8,2.51,22.6" transform="translate(-135.63 -155)"/><path class="cls-1" d="M803.94,590.64c-5.34-4.59-6.18-4.14-10.64-5.06s-6.94,3-6,5.86a13.83,13.83,0,0,0,11.23,8.66c6.46.7,7.05.43,7.7-1.23a7.81,7.81,0,0,0-2.32-8.23" transform="translate(-135.63 -155)"/><path class="cls-1" d="M781.84,563.53c-1.45-1.79-1.83-4-5.49-1.72-2.25-.11-1.82-2.12-3.87-2s-4.62,1.77-3.87,4.88,5.7,12.16,16.13,14.63,6.67-8.54,7.32-9.76,1.66-3,4.81-2,5,1.29,6.27,0-.33-4.3,1.18-6.13,9.36-1.73,10-4.2,1.57-14.52-2.28-19.79-10-3.23-12.35-4.09-1.07-2-1.07-4,.43-11.13-2.8-14.7-5.48-5.52-7.2-4.66-3.34,3.12-2.91,8.18,2.48,8.71,2,10.22-1.62,3.65-4,2.58-3.23-5.59-6.24-5.27-5.27,3.22-5.27,4.52-.82,5.27,2.49,7.52,3.21,2.37,2.67,4.2-1,3.76-3.23,2-17.73-9-20.1-9.57-3,1.18-2.91,3.12,5.27,9.79,7.85,11.19,4.19,7,8.06,6.34,8.5-.11,9-3.66.75-6,2.05-6,2.14,2.47,4.3,2.37,4.73-.92,5.48-3,3.44-5.24,5.7-7,4.09-2.9,5.38-1.93,1.72,2,.75,4.84,0,4.73-2.47,6.56-8.28,5.7-9.14,6.67-2.84,2-.89,3.12,4.44,3.76,4,6.13-.87,5.59-3.45,4.95-3.22-1.19-6-4.63" transform="translate(-135.63 -155)"/><path class="cls-1" d="M754.1,461.93s13.9,5.44,25.23,29-7.75,20.61-7.75,20.61,3.73,5.21-.57,8.65-6.31,2.58-9.32,0c0,0-.43,3.15-4.16,6s-9.89.43-13.62-2.29-14.77-20.8-17.79-23.38-13.19-19.65-13.48-22.66-.86-4.3,0-4.73,3.73,2.44,4.45,3.72,22.51,33.77,26.53,34.67c3.94,2.19,7.55,3.63,9.37,1.91s3.11-2.73,2.1-5.88a46.23,46.23,0,0,0-10.47-17.86c-6.59-6.81-11-11.26-12.62-14.55s-2.58-5.89-2.29-8,4.16-2.15,5-.43,15.49,17.77,15.77,19.72,7.75,12.7,9.33,13.55,3.73,3.45,6.45.58.43-8,.43-8.61A21,21,0,0,0,763,480.84c-5.18-7.41-9.48-14.69-8.88-18.91" transform="translate(-135.63 -155)"/></svg>